<svg viewBox="0 0 330 200" xmlns="http://www.w3.org/2000/svg"><g><g><g><g><g><line x1="46" y1="178" x2="41" y2="178" style="visibility: inherit;" fill="rgb(0, 0, 0)" stroke="rgb(204, 204, 204)" stroke-width="1px"></line><line x1="46" y1="155.75" x2="41" y2="155.75" style="visibility: inherit;" fill="rgb(0, 0, 0)" stroke="rgb(204, 204, 204)" stroke-width="1px"></line><line x1="46" y1="133.5" x2="41" y2="133.5" style="visibility: inherit;" fill="rgb(0, 0, 0)" stroke="rgb(204, 204, 204)" stroke-width="1px"></line><line x1="46" y1="111.25" x2="41" y2="111.25" style="visibility: inherit;" fill="rgb(0, 0, 0)" stroke="rgb(204, 204, 204)" stroke-width="1px"></line><line x1="46" y1="89" x2="41" y2="89" style="visibility: inherit;" fill="rgb(0, 0, 0)" stroke="rgb(204, 204, 204)" stroke-width="1px"></line><line x1="46" y1="66.75" x2="41" y2="66.75" style="visibility: inherit;" fill="rgb(0, 0, 0)" stroke="rgb(204, 204, 204)" stroke-width="1px"></line><line x1="46" y1="44.5" x2="41" y2="44.5" style="visibility: inherit;" fill="rgb(0, 0, 0)" stroke="rgb(204, 204, 204)" stroke-width="1px"></line><line x1="46" y1="22.25" x2="41" y2="22.25" style="visibility: inherit;" fill="rgb(0, 0, 0)" stroke="rgb(204, 204, 204)" stroke-width="1px"></line><line x1="46" y1="0" x2="41" y2="0" style="visibility: inherit;" fill="rgb(0, 0, 0)" stroke="rgb(204, 204, 204)" stroke-width="1px"></line></g><g transform="translate(36, 0)"><text x="0" y="178" dx="0em" dy="0.3em" style="text-anchor: end; visibility: hidden; font-family: &quot;Helvetica Neue&quot;, sans-serif; font-size: 12px; font-weight: 200;" fill="rgb(50, 49, 63)" stroke="none" stroke-width="1px">140</text><text x="0" y="155.75" dx="0em" dy="0.3em" style="text-anchor: end; visibility: inherit; font-family: &quot;Helvetica Neue&quot;, sans-serif; font-size: 12px; font-weight: 200;" fill="rgb(50, 49, 63)" stroke="none" stroke-width="1px">160</text><text x="0" y="133.5" dx="0em" dy="0.3em" style="text-anchor: end; visibility: hidden; font-family: &quot;Helvetica Neue&quot;, sans-serif; font-size: 12px; font-weight: 200;" fill="rgb(50, 49, 63)" stroke="none" stroke-width="1px">180</text><text x="0" y="111.25" dx="0em" dy="0.3em" style="text-anchor: end; visibility: inherit; font-family: &quot;Helvetica Neue&quot;, sans-serif; font-size: 12px; font-weight: 200;" fill="rgb(50, 49, 63)" stroke="none" stroke-width="1px">200</text><text x="0" y="89" dx="0em" dy="0.3em" style="text-anchor: end; visibility: hidden; font-family: &quot;Helvetica Neue&quot;, sans-serif; font-size: 12px; font-weight: 200;" fill="rgb(50, 49, 63)" stroke="none" stroke-width="1px">220</text><text x="0" y="66.75" dx="0em" dy="0.3em" style="text-anchor: end; visibility: inherit; font-family: &quot;Helvetica Neue&quot;, sans-serif; font-size: 12px; font-weight: 200;" fill="rgb(50, 49, 63)" stroke="none" stroke-width="1px">240</text><text x="0" y="44.5" dx="0em" dy="0.3em" style="text-anchor: end; visibility: hidden; font-family: &quot;Helvetica Neue&quot;, sans-serif; font-size: 12px; font-weight: 200;" fill="rgb(50, 49, 63)" stroke="none" stroke-width="1px">260</text><text x="0" y="22.25" dx="0em" dy="0.3em" style="text-anchor: end; visibility: inherit; font-family: &quot;Helvetica Neue&quot;, sans-serif; font-size: 12px; font-weight: 200;" fill="rgb(50, 49, 63)" stroke="none" stroke-width="1px">280</text><text x="0" y="0" dx="0em" dy="0.3em" style="text-anchor: end; visibility: hidden; font-family: &quot;Helvetica Neue&quot;, sans-serif; font-size: 12px; font-weight: 200;" fill="rgb(50, 49, 63)" stroke="none" stroke-width="1px">300</text></g><line x1="46" y1="0" x2="46" y2="178" fill="rgb(0, 0, 0)" stroke="rgb(204, 204, 204)" stroke-width="1px"></line></g></g><g transform="translate(46, 0)" clip-path="url(#clip_0)"><clipPath id="clip_0"><rect width="284" height="178"></rect></clipPath><g><g><g><line x1="0" y1="0" x2="0" y2="178" fill="rgb(0, 0, 0)" stroke="rgb(60, 60, 60)" stroke-width="1px" opacity="0.25"></line><line x1="23.666666666666664" y1="0" x2="23.666666666666664" y2="178" fill="rgb(0, 0, 0)" stroke="rgb(60, 60, 60)" stroke-width="1px" opacity="0.25"></line><line x1="47.33333333333333" y1="0" x2="47.33333333333333" y2="178" fill="rgb(0, 0, 0)" stroke="rgb(60, 60, 60)" stroke-width="1px" opacity="0.25"></line><line x1="71" y1="0" x2="71" y2="178" fill="rgb(0, 0, 0)" stroke="rgb(60, 60, 60)" stroke-width="1px" opacity="0.25"></line><line x1="94.66666666666666" y1="0" x2="94.66666666666666" y2="178" fill="rgb(0, 0, 0)" stroke="rgb(60, 60, 60)" stroke-width="1px" opacity="0.25"></line><line x1="118.33333333333334" y1="0" x2="118.33333333333334" y2="178" fill="rgb(0, 0, 0)" stroke="rgb(60, 60, 60)" stroke-width="1px" opacity="0.25"></line><line x1="142" y1="0" x2="142" y2="178" fill="rgb(0, 0, 0)" stroke="rgb(60, 60, 60)" stroke-width="1px" opacity="0.25"></line><line x1="165.66666666666669" y1="0" x2="165.66666666666669" y2="178" fill="rgb(0, 0, 0)" stroke="rgb(60, 60, 60)" stroke-width="1px" opacity="0.25"></line><line x1="189.33333333333331" y1="0" x2="189.33333333333331" y2="178" fill="rgb(0, 0, 0)" stroke="rgb(60, 60, 60)" stroke-width="1px" opacity="0.25"></line><line x1="213" y1="0" x2="213" y2="178" fill="rgb(0, 0, 0)" stroke="rgb(60, 60, 60)" stroke-width="1px" opacity="0.25"></line><line x1="236.66666666666669" y1="0" x2="236.66666666666669" y2="178" fill="rgb(0, 0, 0)" stroke="rgb(60, 60, 60)" stroke-width="1px" opacity="0.25"></line><line x1="260.3333333333333" y1="0" x2="260.3333333333333" y2="178" fill="rgb(0, 0, 0)" stroke="rgb(60, 60, 60)" stroke-width="1px" opacity="0.25"></line><line x1="284" y1="0" x2="284" y2="178" fill="rgb(0, 0, 0)" stroke="rgb(60, 60, 60)" stroke-width="1px" opacity="0.25"></line></g><g><line x1="0" y1="178" x2="284" y2="178" fill="rgb(0, 0, 0)" stroke="rgb(60, 60, 60)" stroke-width="1px" opacity="0.25"></line><line x1="0" y1="155.75" x2="284" y2="155.75" fill="rgb(0, 0, 0)" stroke="rgb(60, 60, 60)" stroke-width="1px" opacity="0.25"></line><line x1="0" y1="133.5" x2="284" y2="133.5" fill="rgb(0, 0, 0)" stroke="rgb(60, 60, 60)" stroke-width="1px" opacity="0.25"></line><line x1="0" y1="111.25" x2="284" y2="111.25" fill="rgb(0, 0, 0)" stroke="rgb(60, 60, 60)" stroke-width="1px" opacity="0.25"></line><line x1="0" y1="89" x2="284" y2="89" fill="rgb(0, 0, 0)" stroke="rgb(60, 60, 60)" stroke-width="1px" opacity="0.25"></line><line x1="0" y1="66.75" x2="284" y2="66.75" fill="rgb(0, 0, 0)" stroke="rgb(60, 60, 60)" stroke-width="1px" opacity="0.25"></line><line x1="0" y1="44.5" x2="284" y2="44.5" fill="rgb(0, 0, 0)" stroke="rgb(60, 60, 60)" stroke-width="1px" opacity="0.25"></line><line x1="0" y1="22.25" x2="284" y2="22.25" fill="rgb(0, 0, 0)" stroke="rgb(60, 60, 60)" stroke-width="1px" opacity="0.25"></line><line x1="0" y1="0" x2="284" y2="0" fill="rgb(0, 0, 0)" stroke="rgb(60, 60, 60)" stroke-width="1px" opacity="0.25"></line></g></g></g><g><g><line x1="0" y1="333.75" x2="284" y2="333.75" fill="rgb(0, 0, 0)" stroke="rgb(153, 153, 153)" stroke-width="1.5px"></line></g></g><g><g><line x1="23.666666666666664" y1="0" x2="23.666666666666664" y2="178" fill="rgb(0, 0, 0)" stroke="rgb(153, 153, 153)" stroke-width="1.5px"></line></g></g><g><g><g><g><g><path stroke="rgb(204, 51, 17)" stroke-width="2px" d="M29.121833333333335,184.3562807091911L29.287499999999998,174.55420653784552L30.021166666666666,173.91176467075937L30.340666666666667,168.84633963562104L30.53,164.56250080244118L30.61283333333333,163.91540430515403L30.624666666666666,161.08483913034183L31.01516666666667,156.19406478706372L31.180833333333332,152.71403009854748L31.334666666666667,150.2054698525044L31.500333333333334,161.7475522289816L31.61866666666667,159.46902379432322L32.1275,154.30661065892775L32.222166666666666,154.74002730811839L32.731,151.3439217272435L32.778333333333336,147.05401490568832L32.802,143.70121815291245L32.967666666666666,141.64736322581163L32.99133333333334,147.29399982150704L33.07416666666666,144.37252387081972L33.16883333333333,151.6759854114925L33.23983333333334,149.30909778165216L33.57116666666666,146.13745771720517L34.861,143.32156401023903L35.16866666666667,142.0967448369682L35.1805,139.1507349386922L35.2515,138.03394365869542L35.3225,137.07023822171655L35.5355,148.60471479288753L35.571,150.71739337355615L35.677499999999995,149.8874451736691L36.257333333333335,146.8886369838749L36.292833333333334,144.42807208063957L36.61233333333334,144.6484604482807L36.68333333333334,148.64197992834727L36.7425,145.8144404638663L37.35783333333333,144.3390084250338L37.417,143.25660079058403L37.42883333333334,141.73757287037603L37.64183333333333,139.53038350743515L37.79566666666667,142.73755053698744L38.39916666666667,140.7913927296236L38.60033333333333,139.95420966819597L39.25116666666666,139.4524729917581L39.28666666666667,137.2085468912984L39.45233333333333,136.4706998978446L39.49966666666667,134.8299170042173L40.06766666666667,140.91186936404054L40.1505,139.99641492228514L40.410833333333336,138.77710358396416L40.55283333333334,137.76054763770586L40.671166666666664,140.97826849466847L41.02616666666667,139.75814680994912L41.156333333333336,139.4233840621727L41.321999999999996,138.5677848441061L41.70066666666667,136.63504550468488L42.04383333333333,134.90308390053764L42.23316666666667,137.7792780594061L42.4225,141.33880034527675L42.469833333333334,144.24218181785545L42.671,146.93473981603842L43.085166666666666,145.30760599852727L43.582166666666666,147.9502410838914L43.68866666666666,145.54335453656296L43.901666666666664,144.33823968935928L44.00816666666667,143.2306458335541L44.173833333333334,141.0986427303842L44.197500000000005,139.73722859094278L44.233,138.5631860150545L44.75366666666667,136.4681532583037L45.28616666666667,136.5621915734969L45.49916666666667,135.83052840625948L45.605666666666664,134.64607570285455L45.759499999999996,132.80855836192302L45.795,131.18336532496045L45.88966666666666,130.1276216686391L46.363,128.10959297011436L46.56416666666667,127.01403039737679L46.6825,126.0443195350682L46.718,124.09653194761492L47.357,126.64551848628031L47.499,125.19149116400362L47.771166666666666,124.15471707495036L48.2445,122.93249689252677L48.25633333333333,121.14103589673252L48.351000000000006,119.39165581814973L48.39833333333333,118.92404143119265L48.48116666666667,117.42852045180868L49.108333333333334,115.95102560273475L49.19116666666667,114.88984898845018L49.558,113.57851997485132L49.605333333333334,112.9851677606282L49.699999999999996,112.17890766458305L49.79466666666667,110.83384027277592L49.842,110.5149681431862L50.07866666666667,110.23306892352053L50.13783333333334,108.9366431631001L50.14966666666667,108.21623157106633L50.38633333333333,107.63093839209245L50.4455,109.86859672281213L50.85966666666667,108.68063577146712L50.977999999999994,107.2105232144333L51.12,106.53522642768107L51.42766666666667,105.07129746225739L51.534166666666664,104.55542315167514L51.94833333333334,103.55396920844169L51.960166666666666,106.13198664164757L51.98383333333333,105.53385257422516L52.5045,104.94915311999486L52.59916666666667,104.1001654965698L52.705666666666666,103.1155610180886L52.72933333333334,105.53470552829867L52.788500000000006,105.02385405059184L53.08433333333333,104.40117066225025L53.09616666666667,104.07971350149568L53.2145,102.52352264066054L53.238166666666665,101.29453672677047L53.297333333333334,100.59027680261201L53.463,99.80623181127456L53.534,102.4314082906347L53.640499999999996,101.35391670528902L53.818,100.47590137270812L53.889,100.09037151764284L54.51616666666667,102.46675573505142L55.451,101.3038023863132L55.664,101.2496772879455L56.10183333333333,99.7990772948247L56.2675,99.01991166522001L56.681666666666665,98.46160923122414L57.663833333333336,97.21271518520372L57.947833333333335,96.42890977567781L58.788,95.81869875683257L58.88266666666667,95.41620985065477L59.30866666666667,94.50433583538788L59.628166666666665,93.7265068043068L59.66366666666667,92.65080626264806L60.35,92.20169086980037L61.083666666666666,92.26709956191719L61.272999999999996,91.19102146616589L61.486,90.41401452495037L61.49783333333333,89.82373996505753L61.90016666666667,89.24979222778522L62.0185,88.84652344112513L62.054,88.65072312150092L62.06583333333333,87.50555628164821L62.0895,87.32407470803179L62.101333333333336,86.45427061932641L62.78766666666667,85.56146584344465L63.261,85.01693297804482L63.627833333333335,84.17682274250437L63.94733333333333,83.58958555316394L64.0065,82.94964649383988L64.26683333333334,82.91491809983086L64.49166666666666,82.10297475976908L64.66916666666667,82.18892968700663L64.85849999999999,81.67160751873102L65.20166666666667,81.13107721667343L65.23716666666667,81.17879195846984L66.2785,80.75872198744862L66.4915,79.92073710309084L66.51516666666666,78.69633393474398L66.53883333333333,78.55720154792607L66.60983333333334,77.92727228655671L66.94116666666666,77.43371585430872L67.10683333333334,77.02584378476227L67.76950000000001,76.49820288582399L67.81683333333334,76.01116396335378L67.947,75.95421405841248L68.56233333333333,75.63057383955302L68.81083333333333,76.292033966104L68.87,75.68770945932091L68.89366666666668,75.26225828398975L69.012,74.67523470185485L69.4025,73.7975162587395L69.5445,73.23813588758073L70.15983333333332,72.99792994719314L70.49116666666667,72.8688287628099L70.8225,72.13643250749894L71.27216666666666,71.59366852573012L71.40233333333333,70.72126563617024L71.43783333333333,70.59325020297658L72.11233333333334,70.72126307871943L72.1715,70.75073807000398L72.30166666666666,70.53211925044187L73.1655,69.86815245262027L73.3075,69.35083546857697L73.33116666666666,68.62032248850072L73.39033333333334,67.85335099996725L73.40216666666667,67.60147215663257L73.69800000000001,67.06845528919689L73.75716666666666,66.84553237292408L73.79266666666668,66.48215928303591L73.88733333333333,66.34947175594017L74.12400000000001,66.28334380790193L74.1595,66.15341120363912L74.34883333333333,65.43702969302699L74.60916666666667,65.06760391508212L74.76299999999999,64.7901078690934L74.78666666666666,64.65338800490822L75.37833333333334,64.00948756735926L75.66233333333334,63.9390090913316L75.74516666666666,63.477017425989814L75.81616666666667,63.115020515101804L76.13566666666667,62.667653863206326L76.83383333333333,62.36840132688057L77.035,62.23642138356854L77.2835,61.90445075751704L77.8515,61.618751697008136L77.887,61.54696180220702L78.44316666666667,60.99703567370223L78.77449999999999,60.573824558497805L78.86916666666667,60.09424300293914L78.9165,59.97900696540893L79.01116666666667,59.700827577956716L79.449,59.352472223270155L79.50816666666665,58.995872042663805L79.88683333333333,58.71381139681321L79.98150000000001,58.48710467136459L80.3365,58.64642728586041L80.4785,58.124549021079176L80.50216666666667,57.939960736160515L80.95183333333334,57.67490948127244L81.09383333333334,57.48412182931304L81.59083333333334,57.228369319683225L82.39550000000001,56.869993482789994L82.502,56.2906293506106L82.53750000000001,56.348623485701765L83.43683333333334,56.117319462678395L83.4605,56.07686921736352L83.47233333333332,55.92659278579781L84.0995,55.188726931526475L84.43083333333334,54.93989828735248L85.21183333333333,54.63113038435024L85.67333333333335,54.30712937097786L86.73833333333333,54.1699102860225L86.92766666666667,53.95828785765306L87.09333333333333,53.508983106069365L87.81516666666666,53.7232184695915L88.07549999999999,53.096990512542064L88.93933333333332,52.93383572811537L88.963,52.69416410232509L89.34166666666667,52.337358130423326L89.62566666666666,52.144105711005L89.79133333333333,52.11077206056679L90.30016666666667,51.59056947547464L90.6315,51.40347484366906L90.65516666666666,50.901501126577045L90.7025,50.69927505847225L90.88,50.632799969760185L91.36516666666667,50.46622923363216L91.40066666666668,50.308449423408916L92.02783333333333,49.784907891457834L92.39466666666667,49.782478051149866L92.40650000000001,49.417073877764835L92.60766666666667,49.182281918535324L92.64316666666666,49.243534145660846L93.0455,48.77565818118353L93.06916666666666,48.567522924768554L93.152,48.28656581731008L93.578,48.3708716890539L93.8265,48.03509873295374L94.11049999999999,47.972881123008904L94.16966666666667,48.05728451708421L94.24066666666666,48.03425146412627L94.56016666666667,47.54701743656821L94.79683333333332,47.182414050000204L94.85600000000001,46.960443753524146L95.0335,46.73598199062587L95.09266666666666,46.123332061084L95.6015,45.49224556708205L95.89733333333334,45.68125274800735L95.92099999999999,45.778445035628806L96.11033333333333,45.77450870168067L96.22866666666667,45.472196835664676L96.82033333333332,45.34010856076938L97.04516666666667,44.92686695330744L97.199,44.979449527433815L97.27000000000001,45.04834919184589L97.42383333333333,44.60134503886616L98.09833333333333,44.26515868615087L98.37049999999999,44.43524892567288L98.42966666666668,44.00010055298986L98.71366666666667,43.527293363253534L98.84383333333334,42.976863830603065L98.97399999999999,42.90976398141976L99.12783333333333,42.87754567293064L99.41183333333332,42.69227554208055L100.536,42.65639207803676L100.54783333333333,42.28049586428463L100.59516666666667,42.445273891310535L100.83183333333332,42.45242399122645L101.47083333333333,42.49685519519724L101.58916666666667,42.497227834252726L101.814,42.2136149868785L102.453,42.403058978765785L102.55949999999999,42.38492465431389L102.6305,41.98102362856304L102.7015,41.626987629625404L102.73700000000001,41.26483574042774L102.81983333333334,41.18528297279457L102.9145,40.83047110672021L102.95,40.559917610202746L103.092,40.37795304749511L103.41149999999999,40.44501882320699L103.45883333333333,40.3431180448392L103.589,40.54109594185476L104.52383333333333,40.4875239646768L104.6895,40.853868128849115L104.78416666666666,40.87053346420953L104.96166666666666,40.73330057046377L105.73083333333334,40.662637175239524L106.074,40.902739820654915L106.1095,40.99062556855657L106.41716666666666,40.93637569306483L106.6775,40.98141861046389L107.76616666666666,40.97250157413319L107.86083333333335,40.81190261434972L108.133,40.74586545849834L108.346,40.39257786503728L109.06783333333334,40.10199958112588L109.43466666666667,39.90543469641142L110.06183333333334,39.941314301897364L110.19200000000001,39.5987303400876L110.405,39.67682572260182L110.52333333333333,39.50055073599165L110.53516666666667,39.42815144051221L110.76,39.72689290518176L111.03216666666667,39.666551210967924L111.25699999999999,39.475078164263834L111.71849999999999,39.53183429137124L111.754,39.05210871225535L111.83683333333333,38.90375854934305L111.95516666666667,38.87553665351223L111.99066666666666,38.53086509425822L112.16816666666668,38.35233498711548L112.55866666666667,38.010368335308556L112.7835,37.88288481229287L113.71833333333333,37.96228308355995L114.1325,37.88599788044735L114.33366666666667,37.54547595649194L114.51116666666667,37.22717672691675L114.64133333333334,36.98727310596709L114.71233333333333,37.0708310281378L115.00816666666665,37.331876485007086L115.1265,37.554370264674674L115.3395,37.498480111159495L115.46966666666667,37.635922767207006L115.50516666666667,37.58968781711832L115.74183333333335,37.527566240426296L115.8365,37.5378536677909L115.95483333333333,37.41673030517441L116.369,37.22037523643553L116.42816666666666,37.473474224543395L117.14999999999999,37.23112421400279L117.16183333333332,36.78653981006775L117.5405,36.55033420738499L118.14399999999999,36.45194598607284L118.23866666666666,36.439627438804024L118.65283333333333,36.579743992792686L118.783,36.28178496552664L118.925,36.01532671982736L119.12616666666666,35.770685491175044L119.83616666666667,35.6074677160382L120.47516666666667,35.589210091659396L120.5225,35.522005320534134L120.68816666666666,35.75409425477781L120.88933333333334,36.05177222201914L120.96033333333334,35.61360110227912L121.45733333333332,35.34925852158602L121.64666666666668,35.17628690681374L121.77683333333334,35.15166275474138L121.978,35.19248557418953L122.21466666666667,35.1386013655559L122.27383333333333,35.22353085994584L122.2975,35.21628080111856L122.3685,34.93330825703271L122.60516666666668,39.48031770157016L122.64066666666668,39.48448378655965L122.69983333333333,39.23318829882771L122.80633333333333,39.22204584667713L123.87133333333333,39.55198787808294L123.88316666666665,39.22940876506732L123.90683333333334,39.01818132178752L124.23816666666667,38.677019364891436L124.29733333333333,39.09518048939691L124.35650000000001,39.11139130224797L125.04283333333333,38.91597156602268L125.35050000000001,38.822828417231676L125.457,38.53198258860161L125.8475,38.29155499583783L125.85933333333332,38.44603480818222L125.96583333333334,38.54269332771423L126.4155,38.37468798944326L126.51016666666666,38.02925328591934L126.56933333333333,37.57878230566985L126.94800000000001,37.610088052462146L127.50416666666668,37.80103280569128L127.5515,37.43516746058364L127.82366666666667,37.00509311556942L128.03666666666666,36.98504664089913L128.07216666666667,36.76136294342862L128.32066666666665,36.57856975449113L128.45083333333332,36.48448902874921L128.73483333333334,36.19271112126705L128.81766666666667,35.816861217341994L129.01883333333333,35.74858866159997L129.0425,35.50024401790978L129.078,35.844805033056105L129.32649999999998,35.983649153739776L129.40933333333334,36.0194232432583L129.6815,35.97287646207323L129.88266666666667,35.936074069390855L130.09566666666666,35.981858376334145L130.16666666666666,36.0024495001918L130.285,36.18324687751709L130.50983333333335,36.06091292922417L130.82933333333332,36.06055673317664L130.924,36.17482944594349L131.17249999999999,35.76303287496765L132.01266666666666,35.77249511476029L132.85283333333334,35.79897962332555L132.93566666666666,36.02273354990885L133.25516666666667,35.865812877626524L133.50366666666667,35.44952354174603L133.81133333333332,35.702405601799484L133.91783333333333,35.683136143378675L134.2965,35.61063095610558L134.545,35.33461995499829L135.05383333333333,35.13500135214733L135.08933333333334,35.183661821252855L135.326,35.55411767880514L135.40883333333335,35.0380135839043L135.7165,34.976503912883715L136.54483333333334,35.102129100208344L136.65133333333333,35.15670961971975L136.73416666666665,35.034515617938325L136.888,35.314352661715134L137.14833333333334,35.306463504591306L137.2785,35.332644848695026L137.59799999999998,35.32541652659154L137.882,35.57208105419127L137.953,36.10657827025611L138.22516666666667,35.961031017438444L138.43816666666666,35.79977070907799L139.16,35.685315447048026L139.2665,35.70183425743082L139.78716666666668,35.491307557167346L140.1185,35.54549862498558L140.154,35.649136790973586L140.62733333333333,35.52663912614426L140.91133333333332,35.58631715316662L141.6805,35.15702460876517L142.60350000000003,35.24197698309072L142.66266666666667,35.140757003407316L142.69816666666668,34.90501624582913L142.86383333333336,35.02586499532458L143.00583333333333,35.20052166239614L143.278,35.095313508116334L143.34900000000002,35.21252648015326L143.5265,35.388937310939525L143.7158333333333,35.35657480509707L143.99983333333333,35.92126733265974L144.20100000000002,35.7928580143996L144.911,35.99721835154085L145.04116666666667,36.03582569921676L145.27783333333335,36.32785922768156L145.36066666666667,36.12034028708365L145.41983333333332,36.29270169446369L146.69783333333334,36.01022697461826L146.73333333333335,36.061573184924214L146.98183333333333,35.837816356451356L147.04100000000003,35.9990589896008L147.54983333333334,35.95805260895409L147.68,35.853546580352884L147.79833333333332,35.810784197810165L147.84566666666666,35.72065253125885L148.18883333333332,35.5086090745491L148.29533333333333,35.276574023228164L148.5675,34.8605177384934L148.57933333333332,34.661360087655765L148.72133333333332,34.13302748970986L149.08816666666667,34.270187802680226L149.19466666666665,33.975474527439616L149.39583333333331,34.3335579042963L149.455,33.92543987580146L149.5615,34.21495309332275L149.65616666666665,34.08447208985007L149.75083333333333,34.075743985599445L149.952,34.346331545410976L150.307,34.233733109537326L150.42533333333333,34.26626500463507L150.86316666666664,35.087242325817016L150.96966666666665,34.8021004350843L150.9815,34.625127383778135L151.24183333333335,34.524347050440696L151.32466666666667,34.26181627220967L151.656,34.24743880764245L151.77433333333332,34.151926356895814L151.83350000000002,34.43101880953782L151.96366666666668,34.08779464839077L152.07016666666667,34.06313884588417L152.23583333333332,33.99532853916011L152.68550000000002,34.03144321495458L152.72099999999998,34.087224475807176L153.12333333333333,34.247243130754015L153.17066666666668,35.04990169364291L153.4428333333333,35.12591791706623L153.51383333333334,35.17944526376718L153.5375,34.89408162747014L154.01083333333332,34.795703557623966L154.08183333333335,34.58712781938286L154.1055,34.49098122523276L154.23566666666667,34.84075824069106L154.29483333333332,34.67278331028919L154.4605,34.45926253360125L154.567,34.4455136974351L154.75633333333334,34.56816554486784L155.05216666666666,35.05454812795557L155.277,35.027582752222884L155.3835,34.77832191191891L155.5965,34.48875182727784L155.91600000000003,34.065655010355044L156.18816666666666,34.155158964475504L156.21183333333332,34.149990742159474L156.22366666666667,34.719506480624176L156.92183333333335,34.95518853828395L156.95733333333334,35.07294908017738L157.06383333333332,34.78016181051848L157.51350000000002,34.66555129718395L158.117,34.48989360892L158.70866666666666,33.97308911177487L158.80333333333334,33.62809127599226L159.22933333333333,33.541724236877315L159.4305,33.28263546321497L159.66716666666667,33.23595521409965L159.99849999999998,32.97943151024606L160.034,32.46243187755576L160.11683333333335,32.35762362875792L160.1405,32.31784042404746L160.34166666666667,32.15212776595854L160.43633333333332,31.95043166296486L160.54283333333333,31.838592107296762L160.72033333333331,31.733141749355468L160.90966666666665,31.784276965970292L161.37116666666665,31.463418792364763L161.51316666666668,31.43170325262679L161.65516666666667,31.45321149388286L161.78533333333334,31.47045272403895L161.95100000000002,31.68975463064845L161.97466666666668,31.560555672753708L162.40066666666667,31.480740471884673L162.82666666666668,31.79450892048689L163.14616666666666,32.1098920369204L163.32366666666664,32.563071131910334L163.6786666666667,32.53776478279332L163.96266666666668,32.32298909162722L164.17566666666664,32.2046908911359L164.56616666666665,32.858981966900586L164.88566666666668,32.63895052665825L165.0395,32.90430041975637L165.06316666666666,32.94549788102546L165.31166666666667,33.28615027474973L165.37083333333334,33.11665042712903L165.53650000000002,33.00367761127552L165.65483333333333,33.007374221351824L165.714,32.98467074240207L165.79683333333335,33.16747871673007L166.02166666666668,33.51426927635217L166.16366666666664,33.76103337997637L166.57783333333333,33.87126641250461L167.3115,33.88340410100673L167.489,34.0011545198401L167.61916666666667,34.11049100073876L167.66649999999998,34.28617871379947L167.85583333333335,34.19819013223784L168.24633333333335,34.137683408270334L168.35283333333334,33.83978328983679L168.87349999999998,33.411323261900236L169.11016666666666,33.22449032161276L169.14566666666667,33.153355586461316L169.33499999999998,33.10273431929676L169.52433333333332,33.07418957236524L170.36450000000002,32.96684097928508L170.47099999999998,33.02079718887384L170.83783333333332,32.739800432464705L171.06266666666667,32.75575866961944L171.09816666666666,33.53359858086304L171.3585,33.37219547875185L172.12766666666667,33.26761447012993L172.22233333333335,33.066310005230406L172.47083333333333,33.058901032351L172.73116666666667,32.84737711688018L173.07433333333336,33.19515441836393L173.61866666666666,33.04698049296283L173.95000000000002,32.768130380787824L174.64816666666667,32.5872097896866L174.8375,32.476713727764206L175.20433333333332,32.26053318158043L175.5475,32.33896302443043L175.84333333333333,32.41251324297002L175.9025,32.26331312444134L176.05633333333333,32.304487510605526L176.21016666666668,32.59068700060632L176.28116666666665,32.70009337995839L176.77816666666666,32.86038092670091L176.79000000000002,32.67538032114015L177.02666666666664,32.923809636109326L177.71300000000002,32.605531826261426L177.91416666666666,32.94841659134741L178.2336666666667,32.803843475502816L178.2455,32.385169982025985L178.34016666666665,31.935553313360913L178.48216666666667,31.71339335066753L178.62416666666667,31.640006548812806L178.80166666666668,31.365698129816565L178.84900000000002,31.098200178433444L179.05016666666666,30.81493883429752L179.26316666666668,30.88948488118578L179.47616666666664,30.42715038251518L179.65366666666668,30.716500578617286L179.772,30.76556843283427L179.8075,30.321735297697472L179.9495,30.166967132443148L179.96133333333336,29.986175332821034L180.00866666666667,29.7768578433097L180.34,29.72183668890085L180.64766666666668,29.696089632231633L181.03816666666668,29.677808980960805L181.21566666666666,29.439609233593927L181.64166666666665,29.04001203946933L182.26883333333333,29.134630217759707L182.31616666666665,28.879447074546334L182.55283333333333,29.04041657256738L183.13266666666667,29.042971441244163L183.47583333333333,29.112783646044278L183.97283333333334,28.78141520946687L184.57633333333334,28.72299983268573L184.75383333333335,28.399501445507838L184.8485,28.30616504287974L184.9195,28.019300750241456L185.51116666666664,27.812303501643584L185.54666666666665,27.662570069291064L185.58216666666667,27.63545323520316L185.73600000000002,27.311533109993434L186.0555,27.184271251290795L186.35133333333334,27.12372258776091L186.43416666666667,27.04610643568222L186.6945,27.08074612138816L187.09683333333334,27.084339930084127L187.511,27.13099899138959L187.78316666666666,26.64559634514552L187.81866666666667,26.550762918570996L187.9725,26.413885384315563L188.01983333333334,26.145093757094116L188.59966666666668,26.53347158200725L188.61149999999998,26.494238331372543L188.83633333333336,26.13746264208001L188.8718333333333,26.059841602450632L188.97833333333332,26.521160972471222L188.99016666666668,27.039606418654557L189.06116666666668,27.333074243501216L189.29783333333333,27.36553192181711L189.32150000000001,27.072052701854318L190.29183333333333,26.99426248280284L190.36283333333333,26.851218801513085L191.25033333333334,27.0842673626303L191.96033333333335,27.347321667180125L192.03133333333335,27.19582447214873L192.30349999999999,27.46867878864927L192.74133333333333,27.535085647290288L192.7531666666667,27.69099949227291L192.82416666666666,27.612393992150004L192.93066666666667,27.61690802721037L193.13183333333333,27.583189544237655L193.27383333333336,27.33289670545892L193.34483333333333,27.187736857463477L193.5815,27.021922451586335L193.62883333333335,27.226419345720785L194.043,27.080161584616206L194.63466666666667,27.119789104860217L194.91866666666667,26.89644896593572L195.19083333333333,26.85737783878946L195.61683333333335,27.112001291426083L195.90083333333334,26.915745267756364L195.93633333333332,26.608819855590838L196.64633333333333,26.92040549003346L196.82383333333334,26.397524297205962L196.89483333333334,26.680730744449704L197.24983333333333,26.77069800044677L197.3563333333333,26.72665336680936L197.40366666666668,26.802037566344012L197.47466666666668,26.5474946771364L198.17283333333333,26.584514599202123L198.31483333333333,27.008743007132125L198.56333333333333,26.624614815087142L198.57516666666666,26.256597736867406L198.6225,26.288613188946783L198.66983333333332,25.82649312181053L198.71716666666669,25.939826450007644L198.91833333333335,26.206697912925165L198.98933333333332,26.280109457697847L199.03666666666666,26.071736628715144L199.35616666666667,26.113233419801105L199.67566666666664,26.3234329604781L199.90050000000002,26.12094895845823L200.27916666666667,26.03336884007183L200.29100000000003,25.714881043824136L200.30283333333333,25.551367034518876L200.58683333333332,25.640968095101186L201.356,25.441367414131008L201.49800000000002,25.22267926487487L202.2435,25.39218194535823L202.7405,25.207836179396878L202.78783333333334,25.575139666062597L203.3085,25.137645471843626L203.53333333333333,25.089203422659125L203.97116666666668,24.798152722749165L204.32616666666667,25.010072431619307L204.409,25.22781151648951L204.52733333333333,25.238487447905356L204.74033333333333,25.268256569332152L205.01250000000002,25.35236256286825L205.21366666666668,25.58184892888437L205.28466666666665,25.436404758738718L205.3675,25.42331855381491L205.92366666666666,27.730925571217654L205.98283333333333,27.531996113936913L206.17216666666667,27.38910182826362L206.24316666666667,27.122787420731896L206.36149999999998,26.743663269624165L206.5745,26.983603671882264L206.77566666666667,26.88193803321954L206.79933333333332,26.877356715822373L207.178,26.626788844120796L207.41466666666665,26.406247023470257L207.54483333333332,26.14838819062112L208.101,26.013601558657797L208.243,26.174403076258614L208.37316666666666,26.29585791364778L209.1305,26.03900239722418L209.49733333333333,26.08622897085982L209.93516666666667,26.252176326140187L210.21916666666667,26.26532338013544L210.32566666666668,26.571175295440298L210.39666666666668,26.971336910814614L210.57416666666666,27.05570497438171L210.77533333333332,27.13011506491921L210.941,27.07657658474608L210.9765,27.156846920807226L211.20133333333334,27.156620659080147L211.42616666666666,26.7439671907197L212.76333333333332,26.631653127302144L212.858,26.513274729981845L212.929,26.377376098814437L213.21300000000002,26.641067074138533L213.22483333333332,26.309598328685354L213.6745,26.769013539143884L213.99399999999997,26.714191823740407L214.136,27.084664216262667L214.3845,26.953605546397682L215.08266666666665,28.961790187323317L215.23649999999998,31.38871176492904L215.35483333333335,31.156087858338708L215.40216666666666,30.856013463390184L215.69799999999998,30.883528272953555L215.95833333333331,30.624078104167893L216.81033333333332,31.184093822071674L217.07066666666665,31.239807655611287L217.118,31.477184221841384L217.14166666666665,31.200064596319606L217.1535,31.892648483123395L217.27183333333332,32.344899986256706L217.5085,32.88498144790353L217.81616666666665,33.73947402468707L218.2185,34.12315253029783L218.32500000000002,33.91400633066226L218.98766666666666,33.5346085433612L219.62666666666667,33.79848134824732L219.9343333333333,33.72501579712062L219.9935,33.45045856226619L220.23016666666666,34.01633103582506L220.83366666666666,34.19257858512475L220.88100000000003,34.1356934259405L221.25966666666667,34.24577132177231L221.8395,34.199854447405016L222.07616666666667,34.093589288466006L222.45483333333334,34.11221748776697L222.57316666666668,34.72079433868572L222.58499999999998,34.32096988184256L222.88083333333333,34.35257595020556L222.98733333333334,35.43952898741193L223.153,35.40033615490259L223.65,35.60596895745448L223.94583333333335,35.495687374667995L224.83333333333331,35.86065952977523L225.62616666666668,36.837877338224246L225.993,37.42981736574879L226.39533333333333,38.09496419123255L226.40716666666665,38.80552411271805L226.6675,39.1112105056273L227.11716666666666,39.153700204002405L227.17633333333336,38.80862526340283L227.2355,39.098128845243735L227.35383333333334,39.376763707105454L227.67333333333332,39.90494592765998L227.68516666666667,40.15069432809628L227.768,39.97273803636497L227.93366666666665,40.37443455719364L228.06383333333332,41.180405336653195L228.27683333333334,41.27438198978194L228.3005,41.225768887732045L228.57266666666666,41.4393234879457L228.5845,41.75584220526875L228.59633333333332,41.76382946087605L228.63183333333333,42.47340233981237L228.85666666666665,42.571578695799815L229.27083333333331,43.311903758851145L229.472,42.958050726066205L229.62583333333333,43.33516232996615L229.63766666666666,43.6956852975826L229.75600000000003,43.82800973582303L229.88616666666664,43.501067713869844L230.0045,44.43347023532675L230.09916666666666,44.82139824920358L230.2175,44.914035732717736L230.79733333333334,44.724332935776005L230.892,44.82107399913994L230.93933333333334,44.83817542269932L231.27066666666667,45.43371827960985L231.43633333333332,45.96332935161257L231.50733333333335,46.13577858477325L231.673,46.718832047682156L231.69666666666666,47.21053789559838L231.77949999999998,47.35860333751086L231.86233333333334,47.50367442779873L231.87416666666667,47.1216059419024L231.9215,47.22473305234513L232.21733333333333,47.8545933811742L232.33566666666667,47.72019694300786L232.383,47.68630016295353L232.57233333333332,47.38245882628564L232.738,47.08363394442367L233.164,48.094219128041004L233.17583333333334,47.99118558163161L233.25866666666667,50.997070132913876L233.38883333333334,51.51468514119L233.96866666666665,51.84157732259044L233.9805,51.63744286615733L234.03966666666665,51.97599024909762L234.35916666666665,52.35680363862011L234.57216666666667,52.03888520056287L234.80883333333335,52.84978954416765L236.12233333333333,53.410379561952524L236.22883333333334,53.693794855278995L236.41816666666665,53.52732203420426L236.45366666666666,53.63339968460269L236.56016666666667,53.67697633100603L236.8915,53.747846318744024L237.2938333333333,53.715858854041045L237.30566666666667,53.809082834148256L237.41216666666668,53.782654297773846L237.44766666666666,54.07927693286483L237.9091666666667,54.0028313205366L238.08666666666667,53.58060423385619L238.205,52.90067015784243L238.3825,53.173446121826885L238.40616666666665,53.393950347789655L238.50083333333333,53.554467338549046L238.69016666666667,53.74518115493336L238.92683333333332,53.41262641543874L239.21083333333334,53.78026602237722L239.47116666666668,53.9815288799869L239.8025,53.7565921920757L239.9445,53.23390800120043L240.4415,52.74769067605902L240.477,52.4749827789165L240.96216666666666,52.31053075841086L241.05683333333334,52.37086438298074L242.01533333333333,51.89270339447056L242.02716666666666,51.82473130036993L243.05666666666667,52.13851149527531L243.15133333333333,52.125672626067214L243.672,51.760529655262204L243.68383333333335,51.64134026067664L244.28733333333332,51.49445200592203L244.39383333333333,51.30235313051395L244.99733333333333,50.89745348818806L245.11566666666667,51.056279060279124L245.1985,51.3659992361619L245.25766666666667,51.54887044899192L245.54166666666669,52.1345657276986L245.9795,52.34724287796891L246.18066666666667,52.002410335059025L246.67766666666668,52.24973543505773L247.24566666666666,51.95768357714108L247.719,52.32205499903117L248.01483333333334,52.276512911897925L248.23966666666666,52.19458940919475L248.29883333333333,52.01023641186919L248.358,51.90162851159475L248.571,51.77253110074193L248.63016666666667,51.5846421491984L248.68933333333334,51.64628852304122L248.83133333333333,51.17973504432365L249.07983333333334,51.09975865337371L249.636,51.060406765661014L249.8845,51.057296679197535L250.32233333333332,50.90134336802221L250.51166666666666,51.30223840533775L250.914,51.309682195211394L251.04416666666665,51.49661364723245L251.19799999999998,51.16807361705145L251.63583333333332,51.545007141966536L251.71866666666665,51.46016995263942L251.766,51.12240264799718L252.06183333333334,50.87539738114532L252.3695,50.76112633151136L253.328,51.21061314710984L253.3635,51.43406514677844L253.42266666666666,51.06841214972246L254.01433333333333,51.968258974690656L254.251,51.5781555220489L254.42849999999999,51.7923343765905L254.464,51.67905785165729L254.48766666666666,51.567759027024195L254.72433333333333,51.182916667715816L254.79533333333333,50.64958616025966L255.0675,50.49646029824588L255.36333333333334,50.24513929936316L255.387,50.25028762544977L255.54083333333332,50.30023433120799L255.78933333333333,50.3361762621126L256.01416666666665,50.13841006388135L256.0851666666667,50.05412472863689L256.25083333333333,49.93259541076284L256.38100000000003,49.61630780480414L256.4875,49.411561493015626L256.5348333333333,49.54952866941693L257.03183333333334,49.41550854280038L257.11466666666666,49.24052126823767L257.162,48.75288355449055L257.22116666666665,48.587651276348254L257.233,48.2619613570528L257.7063333333333,47.88329281424271L257.9311666666666,47.472123558699366L258.2506666666667,47.05108775533773L258.5228333333333,46.853350299243715L258.866,46.93387021327496L259.35116666666664,46.921606735564865L259.4695,46.657821470596105L259.6115,46.75518902320539L259.8126666666667,47.023845987003455L260.002,47.03604035299497L260.0966666666667,47.08304708306383L260.2031666666667,47.43172511776399L260.286,47.20826361326036L260.75933333333336,47.18602825756054L260.8421666666667,46.93309399533396L260.91316666666665,46.99604687160158L260.9723333333333,46.83249346168435L261.04333333333335,47.07052756012044L261.0788333333333,46.951996902034836L261.97816666666665,46.58804118562057L261.99,46.521448680104726L262.01366666666667,46.70188862189437L262.0965,46.58049432558528L262.2385,46.283298270359495L262.5106666666667,46.43421049800497L262.5461666666667,46.00091274235024L262.913,45.775632926671875L263.17333333333335,45.801239865959644L263.2325,45.83595835548968L263.26800000000003,45.90310541656348L263.32716666666664,46.3113673031626L263.8123333333333,46.18616121815498L263.98983333333337,46.430159757225994L264.1673333333333,46.20553725557403L264.27383333333336,46.60564221002261L264.2975,47.00712889682603L264.52233333333334,46.778952140151176L264.759,46.72945713322608L264.79449999999997,46.837300655743576" style="fill: none;" fill="none"></path></g></g></g></g><g opacity="0.2"><g><g><g><path stroke="rgb(204, 51, 17)" stroke-width="2px" d="M24.518666666666665,297.57854852676394L24.790833333333335,53.493093109130854L25.512666666666668,162.96368045806884L25.548166666666667,109.04832420349122L25.654666666666667,102.09750785827636L26.388333333333332,157.29053478240968L26.4475,88.33862133026123L26.696,119.43657474517822L26.909,70.06093349456788L27.32316666666667,351.38059078454967L27.346833333333333,237.05130681991577L27.4415,98.67047958374023L27.784666666666666,147.2709560394287L28.021333333333335,180.51943836212158L28.660333333333334,45.54561691284178L29.121833333333335,84.534840965271L29.287499999999998,5.867310333251936L30.021166666666666,162.33032817840575L30.340666666666667,73.42922687530518L30.53,80.43402500152588L30.61283333333333,150.69380836486818L30.624666666666666,101.02629203796387L31.01516666666667,48.618130874633806L31.180833333333332,73.48850498199462L31.334666666666667,91.18388557434082L31.500333333333334,442.02152128219603L31.61866666666667,102.43754215240479L32.1275,21.272963714599626L32.222166666666666,166.2264207839966L32.731,58.87833595275879L32.778333333333336,27.17395324707033L32.802,47.62605438232421L32.967666666666666,81.34889736175538L32.99133333333334,317.0041788816452L33.07416666666666,54.55308818817139L33.16883333333333,381.2025657653809L33.23983333333334,73.32532043457032L33.57116666666666,42.19711685180664L34.861,49.17475433349611L35.16866666666667,100.34298114776611L35.1805,36.809769058227545L35.2515,98.52024726867675L35.3225,102.35984573364259L35.5355,571.3139894485473L35.571,229.4590069770813L35.677499999999995,118.442138671875L36.257333333333335,31.436341094970686L36.292833333333334,48.20915946960449L36.61233333333334,153.39861812591553L36.68333333333334,309.56612603664394L36.7425,30.215130615234358L37.35783333333333,83.16091976165771L37.417,97.75231399536132L37.42883333333334,77.01258163452148L37.64183333333333,44.23854484558106L37.79566666666667,282.99226388931277L38.39916666666667,54.607086944580075L38.60033333333333,102.42204360961914L39.25116666666666,116.68708572387695L39.28666666666667,34.191143417358404L39.45233333333333,102.20482635498047L39.49966666666667,57.76899337768555L40.06766666666667,429.7212122917175L40.1505,96.05329685211181L40.410833333333336,79.62658996582032L40.55283333333334,87.93273944854737L40.671166666666664,300.3073657512665L41.02616666666667,78.73867454528809L41.156333333333336,122.51757640838623L41.321999999999996,94.94432773590087L41.70066666666667,37.16469078063963L42.04383333333333,44.94268455505372L42.23316666666667,288.52614336013795L42.671,291.7826070308685L43.085166666666666,57.039373588562015L43.582166666666666,292.48970046043394L43.68866666666666,12.831842803955084L43.901666666666664,77.3617317199707L44.00816666666667,81.19309711456299L44.173833333333334,20.766281890869124L44.197500000000005,62.31826553344726L44.233,71.30473823547364L44.75366666666667,15.574219131469732L45.28616666666667,142.02750873565674L45.49916666666667,93.00862255096435L45.605666666666664,64.84446010589599L45.759499999999996,23.784576416015625L45.795,34.11237754821778L45.88966666666666,66.65461521148681L46.363,5.997885131835943L46.56416666666667,60.299431800842285L46.6825,66.62399158477783L46.718,4.008469772338884L47.357,284.7515988826752L47.499,34.46488876342775L47.771166666666666,59.08387413024903L48.2445,45.779639816284174L48.25633333333333,7.41207199096678L48.351000000000006,7.712842178344744L48.39833333333333,88.90755195617676L48.48116666666667,20.909418487548834L49.108333333333334,20.086145401000977L49.19116666666667,45.67507133483886L49.558,27.604755020141596L49.605333333333334,73.8852201461792L49.699999999999996,58.782136344909674L49.79466666666667,21.312278747558594L49.842,89.18883438110352L50.07866666666667,91.28913307189941L50.13783333333334,21.403165054321306L50.14966666666667,59.34790954589843L50.38633333333333,67.74581108093261L50.4455,263.0454780578613L50.85966666666667,26.99696769714356L50.977999999999994,5.681667327880859L51.12,59.69573554992675L51.42766666666667,3.097332000732422L51.534166666666664,68.46942157745362L51.94833333333334,33.210202789306635L51.960166666666666,287.95755224227906L51.98383333333333,63.17762832641601L52.5045,63.37948284149169L52.59916666666667,43.50381546020506L52.705666666666666,32.56758193969725L52.72933333333334,279.53064398765565L52.788500000000006,68.14276390075683L53.08433333333333,59.27943077087403L53.09616666666667,80.70053882598877L53.2145,-11.065110778808588L53.238166666666665,11.269426727294928L53.297333333333334,48.82081718444826L53.463,41.97198905944825L53.534,296.7372433185577L53.640499999999996,21.332785034179693L53.818,35.05193214416502L53.889,71.26880130767822L54.51616666666667,280.69735918045046L55.451,13.80232658386231L55.664,97.16440486907959L56.10183333333333,-10.031003189086903L56.2675,39.845072937011736L56.681666666666665,55.931830406188965L57.663833333333336,1.7907352447509766L57.947833333333335,36.365013504028326L58.788,48.92103996276856L58.88266666666667,64.39386501312256L59.30866666666667,24.020568466186518L59.628166666666665,33.434991073608415L59.66366666666667,9.039368057250982L60.35,57.19756736755372L61.083666666666666,97.37883815765382L61.272999999999996,6.870352935791033L61.486,29.367956161499023L61.49783333333333,43.327814483642584L61.90016666666667,43.9238208770752L62.0185,56.9186954498291L62.054,73.10988559722901L62.06583333333333,-3.612094116210926L62.0895,72.84883785247803L62.101333333333336,16.910081481933588L62.78766666666667,14.00823822021485L63.261,41.273043823242205L63.627833333333335,16.53152999877929L63.94733333333333,36.196990966796875L64.0065,31.18670082092285L64.26683333333334,80.09954166412354L64.49166666666666,16.134407424926763L64.66916666666667,89.18783283233643L64.85849999999999,39.45759239196778L65.20166666666667,36.92920799255373L65.23716666666667,85.08888416290283L66.2785,46.26350669860838L66.4915,10.965804672241205L66.51516666666666,-22.260287094116222L66.53883333333333,67.06219463348388L66.60983333333334,25.77983131408692L66.94116666666666,36.495588302612305L67.10683333333334,43.12933807373045L67.76950000000001,32.56435661315916L67.81683333333334,35.38139076232912L67.947,71.19446601867676L68.56233333333333,48.53152236938476L68.81083333333333,131.7784225463867L68.87,24.902780151367182L68.89366666666668,39.44543800354003L69.012,25.169395828247076L69.4025,-0.35240936279296875L69.5445,25.900288772583025L70.15983333333332,52.63585224151612L70.49116666666667,61.906645965576175L70.8225,9.844341659545904L71.27216666666666,25.35456352233885L71.40233333333333,-3.720872497558588L71.43783333333333,59.65219364166259L72.11233333333334,81.67942543029785L72.1715,73.27780628204346L72.30166666666666,51.759615898132324L73.1655,12.767030715942383L73.3075,24.79434127807619L73.33116666666666,5.607247161865217L73.39033333333334,1.5976909637451229L73.40216666666667,45.81087455749511L73.69800000000001,20.889421463012695L73.75716666666666,47.504578399658186L73.79266666666668,34.91117210388185L73.88733333333333,54.80508804321289L74.12400000000001,60.521996307373044L74.1595,54.817700767517096L74.34883333333333,2.8535312652587947L74.60916666666667,32.75135765075683L74.76299999999999,40.483619689941406L74.78666666666666,52.662198066711426L75.37833333333334,7.462658691406233L75.66233333333334,57.741764831542966L75.74516666666666,22.802481460571272L75.81616666666667,31.204524993896484L76.13566666666667,23.183171844482416L76.83383333333333,35.92429809570311L77.035,50.559692573547366L77.2835,32.49889945983887L77.8515,36.2821056365967L77.887,55.17301292419434L78.44316666666667,12.11503944396972L78.77449999999999,22.91251602172852L78.86916666666667,17.368553161621094L78.9165,49.701263427734375L79.01116666666667,34.86309776306152L79.449,28.215122604370123L79.50816666666665,27.087276840209967L79.88683333333333,33.448163986206055L79.98150000000001,38.15843086242674L80.3365,72.94766864776611L80.4785,11.231096267700195L80.50216666666667,41.33687133789064L80.95183333333334,33.81045303344726L81.09383333333334,40.28904762268067L81.59083333333334,34.1555290222168L82.39550000000001,24.50745697021486L82.502,3.9217254638672046L82.53750000000001,61.59572448730469L83.43683333333334,35.17004699707033L83.4605,52.41021518707275L83.47233333333332,42.29207725524904L84.0995,-11.81854705810548L84.43083333333334,32.322830581665045L85.21183333333333,26.540906524658197L85.67333333333335,24.805069732666L86.73833333333333,41.66446266174316L86.92766666666667,34.65545463562012L87.09333333333333,12.491316223144537L87.81516666666666,73.29758262634277L88.07549999999999,-4.168310165405273L88.93933333333332,38.001849746704096L88.963,30.741402053833013L89.34166666666667,19.62923545837404L89.62566666666666,34.41464157104494L89.79133333333333,49.05023975372316L90.30016666666667,3.79074325561524L90.6315,34.1986125946045L90.65516666666666,4.705615615844721L90.7025,32.07461624145506L90.88,44.50597534179687L91.36516666666667,35.102484893798845L91.40066666666668,35.74486808776854L92.02783333333333,1.4252887725830021L92.39466666666667,49.55787220001221L92.40650000000001,15.616419982910173L92.60766666666667,27.448275756835955L92.64316666666666,54.917414283752436L93.0455,5.40585098266601L93.06916666666666,29.261282730102522L93.152,22.207968902587908L93.578,56.20139980316162L93.8265,16.82717361450196L94.11049999999999,42.1863883972168L94.16966666666667,55.91220684051514L94.24066666666666,45.88933486938478L94.56016666666667,2.1454872131347713L94.79683333333332,13.186662673950195L94.85600000000001,26.251068496704107L95.0335,25.781359100341803L95.09266666666666,-11.105172729492182L95.6015,-13.493713760375982L95.89733333333334,63.357703399658206L95.92099999999999,54.873447990417475L96.11033333333333,45.40594329833985L96.22866666666667,17.150011825561506L96.82033333333332,32.95835571289061L97.04516666666667,6.168487930297857L97.199,49.91396522521973L97.27000000000001,51.51766548156738L97.42383333333333,2.6071842193603345L98.09833333333333,12.664872741699213L98.37049999999999,60.43161926269531L98.42966666666668,3.054418182373041L98.71366666666667,-0.9851165771484318L98.84383333333334,-8.870021438598627L98.97399999999999,36.586169052124006L99.12783333333333,39.8397087097168L99.41183333333332,25.214584350585938L100.536,39.269606781005876L100.54783333333333,6.7849666595459155L100.59516666666667,58.0126413345337L100.83183333333332,43.12825164794921L101.47083333333333,46.69848442077637L101.58916666666667,42.53248291015623L101.814,15.368782806396467L102.453,60.34275302886962L102.55949999999999,40.666886138916L102.6305,3.69839706420899L102.7015,8.055745315551775L102.73700000000001,6.908887100219744L102.81983333333334,33.635131072998064L102.9145,7.141653823852522L102.95,14.860335540771501L103.092,23.08603858947754L103.41149999999999,46.82087707519531L103.45883333333333,30.65153427124025L103.589,59.37809181213379L104.52383333333333,35.38824882507325L104.6895,75.73849277496338L104.78416666666666,42.458096694946306L104.96166666666666,27.65517196655273L105.73083333333334,33.92588577270507L106.074,63.80191574096679L106.1095,49.37569217681883L106.41716666666666,35.75851631164551L106.6775,45.282124710083025L107.76616666666666,40.12078742980955L107.86083333333335,25.466635131835943L108.133,34.43372192382813L108.346,6.61161384582519L109.06783333333334,12.307404708862322L109.43466666666667,21.096894836425776L110.06183333333334,43.37568511962891L110.19200000000001,6.79559326171875L110.405,47.15715980529785L110.52333333333333,22.61045570373537L110.53516666666667,32.488782119750994L110.76,68.37025127410888L111.03216666666667,33.87910156249998L111.25699999999999,21.104737472534197L111.71849999999999,44.9788761138916L111.754,-7.0029987335205135L111.83683333333333,24.657247924804693L111.95516666666667,36.16446609497072L111.99066666666666,5.4106719970702954L112.16816666666668,21.191821289062517L112.55866666666667,5.130306243896484L112.7835,25.621722412109392L113.71833333333333,45.60092277526857L114.1325,30.544725036621088L114.33366666666667,4.766082000732439L114.51116666666667,6.578274154663092L114.64133333333334,13.880549240112288L114.71233333333333,45.121096038818365L115.00816666666665,62.488851356506345L115.1265,59.00196781158448L115.3395,32.109415817260725L115.46966666666667,50.892020034790036L115.50516666666667,33.129230117797846L115.74183333333335,31.532897186279314L115.8365,38.530837249755876L115.95483333333333,25.722420501708967L116.369,18.25772476196289L116.42816666666666,61.92221240997314L117.14999999999999,13.814888381958013L117.16183333333332,-6.180472564697254L117.5405,13.716600799560553L118.14399999999999,26.938572311401373L118.23866666666666,35.24823570251465L118.65283333333333,50.134356880187994L118.783,7.451047515869135L118.925,10.226661682128906L119.12616666666666,12.088116455078108L119.83616666666667,19.803538894653315L120.47516666666667,33.82097778320312L120.5225,29.011846160888666L120.68816666666666,58.241605567932126L120.88933333333334,64.90059776306153L120.96033333333334,-6.859963989257807L121.45733333333332,9.720081710815435L121.64666666666668,18.402389144897455L121.77683333333334,32.76324043273925L121.978,39.15291786193848L122.21466666666667,29.909946823120123L122.27383333333333,43.46633377075196L122.2975,34.512487792968756L122.3685,7.4585506439209155L122.60516666666668,481.05147781372074L122.64066666666668,39.88914108276367L122.69983333333333,14.819832229614263L122.80633333333333,38.13935050964355L123.87133333333333,71.61800231933594L123.88316666666665,7.873123931884749L123.90683333333334,18.48203773498537L124.23816666666667,5.502203369140631L124.29733333333333,79.76480369567871L124.35650000000001,40.688309097290045L125.04283333333333,19.903014755249018L125.35050000000001,29.759069442749023L125.457,10.224862289428728L125.8475,14.887462234497065L125.85933333333332,53.48621807098388L125.96583333333334,47.95496978759766L126.4155,22.012174606323242L126.51016666666666,4.380842208862305L126.56933333333333,-6.308263397216791L126.94800000000001,40.66053733825683L127.50416666666668,56.409772872924805L127.5515,1.7736919403076001L127.82366666666667,-4.9215087890625L128.03666666666666,35.030475234985346L128.07216666666667,14.948403930664057L128.32066666666665,18.750418853759783L128.45083333333332,27.307244110107405L128.73483333333334,7.726558303833002L128.81766666666667,-0.8568504333496207L129.01883333333333,29.08589286804201L129.0425,11.260871124267595L129.078,69.48006916046143L129.32649999999998,49.53921623229982L129.40933333333334,39.51259269714356L129.6815,31.42717437744139L129.88266666666667,32.34150352478028L130.09566666666666,40.45432014465334L130.16666666666666,38.01417388916016L130.285,53.84925403594971L130.50983333333335,24.105886840820318L130.82933333333332,36.02574310302734L130.924,47.34497566223146L131.17249999999999,-4.495188522338879L132.01266666666666,36.69766349792482L132.85283333333334,38.38882102966309L132.93566666666666,57.90567932128906L133.25516666666667,20.517218780517595L133.50366666666667,-5.273171234130871L133.81133333333332,60.44307765960693L133.91783333333333,33.79768753051758L134.2965,28.515417480468756L134.545,8.321580123901384L135.05383333333333,15.59618530273437L135.08933333333334,39.947129058837874L135.326,71.82286148071289L135.40883333333335,-15.495792770385748L135.7165,28.953179168701155L136.54483333333334,47.40530624389649L136.65133333333333,40.50266609191894L136.73416666666665,23.06478538513184L136.888,62.72920608520508L137.14833333333334,34.53350334167479L137.2785,37.89809608459473L137.59799999999998,34.61705627441407L137.882,59.74715404510498L137.953,88.49683208465576L138.22516666666667,21.693376541137695L138.43816666666666,19.990234375L139.16,24.46332092285158L139.2665,37.321611404418945L139.78716666666668,14.845804595947271L140.1185,40.86030387878418L140.154,45.81443939208984L140.62733333333333,23.510389709472662L140.91133333333332,41.44089660644531L141.6805,-6.961612701416016L142.60350000000003,43.57755661010742L142.66266666666667,25.208099746704107L142.69816666666668,11.769861602783209L142.86383333333336,46.88677558898925L143.00583333333333,52.343994140625L143.278,24.7676898956299L143.34900000000002,46.719567871093744L143.5265,52.709016227722174L143.7158333333333,32.17894706726074L143.99983333333333,91.37219371795653L144.20100000000002,23.182458877563477L144.911,56.067990112304685L145.04116666666667,39.82785987854004L145.27783333333335,65.01382369995117L145.36066666666667,15.734500885009766L145.41983333333332,53.226120948791504L146.69783333333334,8.256734085083025L146.73333333333335,41.10678672790527L146.98183333333333,13.850095367431635L147.04100000000003,51.84493427276611L147.54983333333334,31.92791481018068L147.68,25.58186416625975L147.79833333333332,31.60745315551756L147.84566666666666,26.860519409179688L148.18883333333332,14.662809753417974L148.29533333333333,12.463816070556646L148.5675,-6.0473175048828125L148.57933333333332,15.078265762329096L148.72133333333332,-17.82125320434571L149.08816666666667,47.75893783569336L149.19466666666665,4.990564727783209L149.39583333333331,69.55321617126465L149.455,-6.2180561065673885L149.5615,62.694033050537115L149.65616666666665,21.24838333129881L149.75083333333333,33.217060852050764L149.952,60.96878890991211L150.307,23.154755020141607L150.42533333333333,37.467396163940435L150.86316666666664,115.87615375518799L150.96966666666665,6.740796661376947L150.9815,17.207863998413103L151.24183333333335,24.605201339721674L151.32466666666667,8.421123886108404L151.656,32.832194519042986L151.77433333333332,24.7496280670166L151.83350000000002,61.90659503936767L151.96366666666668,0.29679794311525143L152.07016666666667,31.635598373413103L152.23583333333332,27.31854972839355L152.68550000000002,37.58758201599122L152.72099999999998,39.5801887512207L153.12333333333333,50.005649375915525L153.17066666666668,114.09874420166015L153.4428333333333,42.612674713134766L153.51383333333334,40.451570129394526L153.5375,6.786019134521467L154.01083333333332,25.105059051513678L154.08183333333335,14.040525436401367L154.1055,25.019197463989258L154.23566666666667,69.30038452148438L154.29483333333332,18.123279571533203L154.4605,13.42139854431153L154.567,33.09079780578614L154.75633333333334,46.654008865356445L155.05216666666666,82.98386631011962L155.277,32.37022590637207L155.3835,10.21328506469726L155.5965,5.949878692626953L155.91600000000003,-7.634959030151379L156.18816666666666,42.97710266113282L156.21183333333332,33.640563201904314L156.22366666666667,90.85867080688477L156.92183333333335,58.18820095062256L156.95733333333334,46.6820182800293L157.06383333333332,5.915384674072271L157.51350000000002,23.36606483459471L158.117,17.171027374267595L158.70866666666666,-16.983041763305664L158.80333333333334,-0.3895515441894588L159.22933333333333,25.025376510620134L159.4305,7.733789825439459L159.66716666666667,28.632615661621088L159.99849999999998,7.681539535522461L160.034,-18.525087356567383L160.11683333333335,22.020832061767578L160.1405,28.394043350219732L160.34166666666667,15.807359313964838L160.43633333333332,12.055761337280273L160.54283333333333,20.806683349609358L160.72033333333331,21.33108749389649L160.90966666666665,36.82864570617676L161.37116666666665,-0.18961524963378906L161.51316666666668,28.302817535400408L161.65516666666667,33.57517395019531L161.78533333333334,33.171498870849604L161.95100000000002,53.32715854644775L161.97466666666668,18.812718582153337L162.40066666666667,23.60524826049803L162.82666666666668,62.75556888580323L163.14616666666666,63.231304550170904L163.32366666666664,77.28339023590088L163.6786666666667,30.040419769287126L163.96266666666668,11.12727470397951L164.17566666666664,20.52974662780761L164.56616666666665,97.43351593017577L164.88566666666668,10.922517395019526L165.0395,59.09433097839356L165.06316666666666,37.011810302734375L165.31166666666667,66.91057033538819L165.37083333333334,16.385507583618164L165.53650000000002,21.851926803588867L165.65483333333333,33.372283935546875L165.714,30.743439102172857L165.79683333333335,51.21434898376465L166.02166666666668,67.75053024291992L166.16366666666664,58.12304935455322L166.57783333333333,44.75442733764649L167.3115,35.08177490234377L167.489,45.62713279724122L167.61916666666667,44.90601768493653L167.66649999999998,51.6334716796875L167.85583333333335,25.510024261474626L168.24633333333335,28.1629741668701L168.35283333333334,4.423009109497087L168.87349999999998,-8.898947525024425L169.11016666666666,14.77433815002442L169.14566666666667,26.128472137451155L169.33499999999998,28.10352630615236L169.52433333333332,30.255124664306635L170.36450000000002,22.364889526367193L170.47099999999998,38.34974365234373L170.83783333333332,4.9866943359375L171.06266666666667,34.33193740844726L171.09816666666666,110.36184692382812L171.3585,17.429834365844727L172.12766666666667,22.937537765502924L172.22233333333335,13.181841659545881L172.47083333333333,32.327040481567366L172.73116666666667,11.952516937255865L173.07433333333336,67.55022048950195L173.61866666666666,18.409349060058588L173.95000000000002,5.220819091796869L174.64816666666667,14.713871765136702L174.8375,21.56045913696289L175.20433333333332,10.902927780151373L175.5475,40.087617492675776L175.84333333333333,39.67922325134279L175.9025,17.522146606445318L176.05633333333333,36.37265243530274L176.21016666666668,60.86870193481445L176.28116666666665,43.5102321624756L176.77816666666666,48.698254776000994L176.79000000000002,14.395277404785162L177.02666666666664,57.47183895111084L177.71300000000002,1.1549724578857479L177.91416666666666,66.83114242553711L178.2336666666667,18.517346572875994L178.2455,-8.988272094726568L178.34016666666665,-12.496510696411121L178.48216666666667,9.758683776855463L178.62416666666667,24.387508773803717L178.80166666666668,4.256514358520491L178.84900000000002,4.661615371704102L179.05016666666666,2.8199878692626896L179.26316666666668,38.25705795288084L179.47616666666664,-15.267303848266607L179.65366666666668,59.31467170715332L179.772,35.61531181335451L179.8075,-13.54633750915528L179.9495,14.869570159912115L179.96133333333336,12.11629562377928L180.00866666666667,9.087102890014648L180.34,24.283245849609358L180.64766666666668,27.151070404052717L181.03816666666668,27.870793533325212L181.21566666666666,5.893554306030268L181.64166666666665,-10.460786437988276L182.26883333333333,38.48792343139647L182.31616666666665,3.6534461975097656L182.55283333333333,44.953209304809576L183.13266666666667,29.295539093017595L183.47583333333333,36.01433563232422L183.97283333333334,-3.9777442932128793L184.57633333333334,22.94796066284178L184.75383333333335,-3.5825229644775334L184.8485,19.07851943969726L184.9195,-0.34174880981444744L185.51116666666664,7.347090148925787L185.54666666666665,12.858663940429693L185.58216666666667,24.954419326782244L185.73600000000002,-4.714782333374018L186.0555,14.601596450805658L186.35133333333334,21.137058639526373L186.43416666666667,19.3718204498291L186.6945,30.50578346252442L187.09683333333334,27.439686203002935L187.511,31.744580459594744L187.78316666666666,-21.35091476440431L187.81866666666667,17.173539733886713L187.9725,12.879136276245134L188.01983333333334,-0.43392524719237713L188.59966666666668,64.93802852630616L188.61149999999998,22.61463165283203L188.83633333333336,-9.142951965332031L188.8718333333333,18.38405570983886L188.97833333333332,72.14060707092285L188.99016666666668,78.3087724685669L189.06116666666668,56.354483985900885L189.29783333333333,30.57534866333006L189.32150000000001,-1.9511188507080135L190.29183333333333,19.30123672485351L190.36283333333333,12.704832839965803L191.25033333333334,50.13198032379151L191.96033333333335,53.362772941589355L192.03133333333335,12.212953567504883L192.30349999999999,54.45388393402099L192.74133333333333,34.10276947021484L192.7531666666667,43.11114044189455L192.82416666666666,19.83810081481934L192.93066666666667,28.063362503051763L193.13183333333333,24.248276519775374L193.27383333333336,2.577545166015625L193.34483333333333,12.830484771728521L193.5815,10.621645355224615L193.62883333333335,47.452871322631836L194.043,12.613912582397461L194.63466666666667,31.03935432434082L194.91866666666667,4.805634689331072L195.19083333333333,22.992775726318342L195.61683333333335,52.297532463073736L195.90083333333334,7.503331756591791L195.93633333333332,-3.7505794525146428L196.64633333333333,57.7410348892212L196.82383333333334,-25.323939895629877L196.89483333333334,54.694696998596186L197.24983333333333,35.670074462890625L197.3563333333333,22.369812393188482L197.40366666666668,34.25901107788084L197.47466666666668,1.36801376342774L198.17283333333333,30.246569061279303L198.31483333333333,68.9742530822754L198.56333333333333,-11.374402618408197L198.57516666666666,-10.148948287963862L198.6225,29.455718994140625L198.66983333333332,-19.88875541687011L198.71716666666669,37.15141601562502L198.91833333333335,52.607367515563965L198.98933333333332,33.54251327514649L199.03666666666666,5.457829666137712L199.35616666666667,30.218457794189447L199.67566666666664,47.118354034423845L199.90050000000002,6.0891788482665845L200.27916666666667,17.36899452209471L200.29100000000003,-5.793603134155262L200.30283333333333,9.374564361572283L200.58683333333332,34.505459976196306L201.356,5.694161224365217L201.49800000000002,3.5869365692138615L202.2435,42.16190986633299L202.7405,6.969489288330095L202.78783333333334,61.91474323272705L203.3085,-18.14663772583009L203.53333333333333,20.296470642089844L203.97116666666668,-3.9978431701660213L204.32616666666667,45.977131652832014L204.409,46.77076568603516L204.52733333333333,26.294763183593744L204.74033333333333,28.2136287689209L205.01250000000002,33.67390289306641L205.21366666666668,48.28761978149416L205.28466666666665,11.04582672119139L205.3675,24.128532028198237L205.92366666666666,256.05347938537597L205.98283333333333,7.849120712280268L206.17216666666667,13.250490188598633L206.24316666666667,0.7722789764404467L206.36149999999998,-10.769025802612305L206.5745,50.7247953414917L206.77566666666667,16.82245445251465L206.79933333333332,26.424047851562506L207.178,1.8336490631103572L207.41466666666665,4.58400382995606L207.54483333333332,0.6335559844970646L208.101,12.676551818847656L208.243,42.08569030761717L208.37316666666666,38.31385765075683L209.1305,0.6229293823242017L209.49733333333333,30.75936203002928L209.93516666666667,42.672971343994135L210.21916666666667,27.56625480651857L210.32566666666668,56.83607616424561L210.39666666666668,66.56863479614258L210.57416666666666,35.404239654541016L210.77533333333332,34.49330558776856L210.941,21.778694915771467L210.9765,35.10000648498536L211.20133333333334,27.134230804443376L211.42616666666666,-14.090568923950201L212.76333333333332,15.517453384399431L212.858,14.798918533325178L212.929,12.929213714599626L213.21300000000002,52.73532810211182L213.22483333333332,-6.491937255859369L213.6745,72.23208751678467L213.99399999999997,21.289090347290056L214.136,63.74638919830322L214.3845,13.984065246582048L215.08266666666665,227.692156124115L215.23649999999998,271.55833702087403L215.35483333333335,8.135393905639631L215.40216666666666,1.1602348327636776L215.69799999999998,33.60644264221193L215.95833333333331,4.948329925537109L216.81033333333332,86.6046688079834L217.07066666666665,36.7534107208252L217.118,54.9687479019165L217.14166666666665,3.7752956390380916L217.1535,100.43352794647217L217.27183333333332,77.10168552398682L217.5085,86.33399600982666L217.81616666666665,118.3044002532959L218.2185,72.09406051635742L218.32500000000002,13.215690612792969L218.98766666666666,-4.012917327880871L219.62666666666667,59.913037681579596L219.9343333333333,26.454365921020525L219.9935,6.278318786621099L220.23016666666666,90.01928806304932L220.83366666666666,51.63540687561036L220.88100000000003,28.50587730407713L221.25966666666667,45.14000663757324L221.8395,29.655519485473633L222.07616666666667,23.576627731323242L222.45483333333334,35.955838394165056L222.57316666666668,94.95144042968751L222.58499999999998,-5.249643325805664L222.88083333333333,37.48063697814942L222.98733333333334,143.01588459014891L223.153,31.521387863159163L223.65,55.957683944702154L223.94583333333335,24.580960464477556L224.83333333333331,71.98258304595947L225.62616666666668,133.55508518218994L225.993,96.01547565460204L226.39533333333333,103.92625102996827L226.40716666666665,109.13165645599365L226.6675,69.36594352722167L227.11716666666666,43.35904922485352L227.17633333333336,4.655300521850592L227.2355,67.75142993927003L227.35383333333334,66.95441780090331L227.67333333333332,92.18147907257081L227.68516666666667,64.47356452941895L227.768,22.35952529907226L227.93366666666665,80.13242301940917L228.06383333333332,120.95171432495117L228.27683333333334,50.57578525543212L228.3005,36.41424217224122L228.57266666666666,62.57613887786866L228.5845,73.08372650146484L228.59633333333332,42.55438117980955L228.63183333333333,112.70470714569092L228.85666666666665,52.28879013061524L229.27083333333331,116.58730430603028L229.472,7.934540939331072L229.62583333333333,80.66083335876465L229.63766666666666,79.37952995300293L229.75600000000003,56.92524795532226L229.88616666666664,11.140855026245134L230.0045,136.72142219543457L230.09916666666666,83.21807594299317L230.2175,54.08320903778076L230.79733333333334,25.947684097290022L230.892,54.39645614624024L230.93933333333334,46.530869293212874L231.27066666666667,104.38049583435058L231.43633333333332,98.38429126739503L231.50733333333335,63.204856872558594L231.673,104.42975845336913L231.69666666666666,95.87992706298827L231.77949999999998,62.014253044128424L231.86233333333334,61.86296825408935L231.87416666666667,9.303980636596663L231.9215,57.432405090332026L232.21733333333333,110.19920558929444L232.33566666666667,34.417391586303694L232.383,44.33112869262695L232.57233333333332,17.307577514648443L232.738,17.505239105224604L233.164,148.1245132446289L233.17583333333334,37.792644882202154L233.25866666666667,348.52821915149684L233.38883333333334,102.7498046875L233.96866666666665,84.1984224319458L233.9805,31.4315200805664L234.03966666666665,85.48661785125732L234.35916666666665,90.0511339187622L234.57216666666667,20.57008018493653L234.80883333333335,133.11638984680175L236.12233333333333,108.89994220733642L236.22883333333334,81.74747982025147L236.41816666666665,37.0490882873535L236.45366666666666,64.1334623336792L236.56016666666667,57.990403556823736L236.8915,60.76291122436524L237.2938333333333,50.54957523345948L237.30566666666667,63.036885261535645L237.41216666666668,51.16661415100097L237.44766666666666,83.44064044952393L237.9091666666667,46.4358070373535L238.08666666666667,11.786090087890642L238.205,-14.403289794921875L238.3825,80.17448806762695L238.40616666666665,75.22084484100341L238.50083333333333,69.44347019195557L238.69016666666667,72.62328567504883L238.92683333333332,20.494132232666033L239.21083333333334,90.17174415588379L239.47116666666668,73.9039270401001L239.8025,31.49076423645019L239.9445,1.4948539733886719L240.4415,4.618328094482422L240.477,25.48031730651857L240.96216666666666,36.03182029724121L241.05683333333334,58.343152427673346L242.01533333333333,4.560577774047857L242.02716666666666,45.0963119506836L243.05666666666667,83.19901256561279L243.15133333333333,50.85477600097656L243.672,15.615639114379888L243.68383333333335,39.84296798706055L244.28733333333332,36.954195785522444L244.39383333333333,32.286740875244135L244.99733333333333,10.816930389404291L245.11566666666667,66.7782470703125L245.1985,82.02489185333252L245.25766666666667,69.6511302947998L245.54166666666669,110.11208782196046L245.9795,73.40001220703125L246.18066666666667,17.867630004882812L246.67766666666668,76.73233470916747L247.24566666666666,23.047572326660173L247.719,88.39109230041504L248.01483333333334,47.768308258056635L248.23966666666666,44.084985351562494L248.29883333333333,33.761122512817366L248.358,41.15051536560057L248.571,38.993145370483404L248.63016666666667,32.98544845581054L248.68933333333334,57.74869079589844L248.83133333333333,4.995351791381836L249.07983333333334,43.18284454345704L249.636,47.16493453979493L249.8845,50.749426651000974L250.32233333333332,35.46338195800783L250.51166666666666,90.98724250793457L250.914,52.046551132202154L251.04416666666665,70.00118007659913L251.19799999999998,18.645476913452143L251.63583333333332,88.85817050933838L251.71866666666665,43.06201362609863L251.766,17.68629875183106L252.06183333333334,26.423945999145502L252.3695,39.4492404937744L253.328,95.70611591339112L253.3635,73.5539960861206L253.42266666666666,14.871709060668962L254.01433333333333,141.04592304229737L254.251,12.960991668701155L254.42849999999999,72.99436798095704L254.464,40.46555786132811L254.48766666666666,40.55002746582031L254.72433333333333,13.086439895629866L254.79533333333333,-2.146132278442394L255.0675,35.33813743591307L255.36333333333334,25.366208648681635L255.387,50.759934425354004L255.54083333333332,55.24459819793701L255.78933333333333,53.894170951843265L256.01416666666665,30.56095352172852L256.0851666666667,41.71046600341796L256.25083333333333,37.90203437805175L256.38100000000003,18.306002807617205L256.4875,29.143066024780268L256.5348333333333,63.2073522567749L257.03183333333334,36.14840736389161L257.11466666666666,31.917933273315413L257.162,0.4799285888671818L257.22116666666665,32.23072204589843L257.233,16.02074012756347L257.7063333333333,10.397502136230486L257.9311666666666,6.768941879272461L258.2506666666667,5.371153259277349L258.5228333333333,27.278555679321272L258.866,54.90485248565673L259.35116666666664,45.707596206665045L259.4695,20.54465103149414L259.6115,56.394002723693845L259.8126666666667,73.61931743621827L260.002,48.24321212768555L260.0966666666667,51.7364444732666L260.2031666666667,81.94887599945068L260.286,25.086827468872087L260.75933333333336,44.98485145568847L260.8421666666667,21.893991851806646L260.91316666666665,53.22803916931153L260.9723333333333,30.64158668518067L261.04333333333335,70.6346342086792L261.0788333333333,35.21808738708498L261.97816666666665,10.558327102661138L261.99,39.92913513183592L262.01366666666667,64.56451873779297L262.0965,34.56307449340821L262.2385,16.86238059997558L262.5106666666667,61.373771095275885L262.5461666666667,3.106566619873064L262.913,23.47402839660643L263.17333333333335,48.3362033843994L263.2325,49.272923088073725L263.26800000000003,52.55034713745117L263.32716666666664,86.72738399505616L263.8123333333333,33.79133872985838L263.98983333333337,70.58489627838135L264.1673333333333,23.968929290771484L264.27383333333336,86.21423454284668L264.2975,86.7525245666504L264.52233333333334,24.190458297729492L264.759,41.82966728210451L264.79449999999997,57.513343811035156" style="fill: none;" fill="none"></path></g></g></g></g></g></g><g transform="translate(46, 178)" clip-path="url(#clip_1)"><clipPath id="clip_1"><rect width="284" height="22"></rect></clipPath><g><g><line x1="0" y1="0" x2="0" y2="5" style="visibility: inherit;" fill="rgb(0, 0, 0)" stroke="rgb(204, 204, 204)" stroke-width="1px"></line><line x1="23.666666666666664" y1="0" x2="23.666666666666664" y2="5" style="visibility: inherit;" fill="rgb(0, 0, 0)" stroke="rgb(204, 204, 204)" stroke-width="1px"></line><line x1="47.33333333333333" y1="0" x2="47.33333333333333" y2="5" style="visibility: inherit;" fill="rgb(0, 0, 0)" stroke="rgb(204, 204, 204)" stroke-width="1px"></line><line x1="71" y1="0" x2="71" y2="5" style="visibility: inherit;" fill="rgb(0, 0, 0)" stroke="rgb(204, 204, 204)" stroke-width="1px"></line><line x1="94.66666666666666" y1="0" x2="94.66666666666666" y2="5" style="visibility: inherit;" fill="rgb(0, 0, 0)" stroke="rgb(204, 204, 204)" stroke-width="1px"></line><line x1="118.33333333333334" y1="0" x2="118.33333333333334" y2="5" style="visibility: inherit;" fill="rgb(0, 0, 0)" stroke="rgb(204, 204, 204)" stroke-width="1px"></line><line x1="142" y1="0" x2="142" y2="5" style="visibility: inherit;" fill="rgb(0, 0, 0)" stroke="rgb(204, 204, 204)" stroke-width="1px"></line><line x1="165.66666666666669" y1="0" x2="165.66666666666669" y2="5" style="visibility: inherit;" fill="rgb(0, 0, 0)" stroke="rgb(204, 204, 204)" stroke-width="1px"></line><line x1="189.33333333333331" y1="0" x2="189.33333333333331" y2="5" style="visibility: inherit;" fill="rgb(0, 0, 0)" stroke="rgb(204, 204, 204)" stroke-width="1px"></line><line x1="213" y1="0" x2="213" y2="5" style="visibility: inherit;" fill="rgb(0, 0, 0)" stroke="rgb(204, 204, 204)" stroke-width="1px"></line><line x1="236.66666666666669" y1="0" x2="236.66666666666669" y2="5" style="visibility: inherit;" fill="rgb(0, 0, 0)" stroke="rgb(204, 204, 204)" stroke-width="1px"></line><line x1="260.3333333333333" y1="0" x2="260.3333333333333" y2="5" style="visibility: inherit;" fill="rgb(0, 0, 0)" stroke="rgb(204, 204, 204)" stroke-width="1px"></line><line x1="284" y1="0" x2="284" y2="5" style="visibility: inherit;" fill="rgb(0, 0, 0)" stroke="rgb(204, 204, 204)" stroke-width="1px"></line></g><g transform="translate(0, 8)"><text x="0" y="0" dx="0em" dy="0.95em" style="text-anchor: middle; visibility: hidden; font-family: &quot;Helvetica Neue&quot;, sans-serif; font-size: 12px; font-weight: 200;" fill="rgb(50, 49, 63)" stroke="none" stroke-width="1px">-2k</text><text x="23.666666666666664" y="0" dx="0em" dy="0.95em" style="text-anchor: middle; visibility: inherit; font-family: &quot;Helvetica Neue&quot;, sans-serif; font-size: 12px; font-weight: 200;" fill="rgb(50, 49, 63)" stroke="none" stroke-width="1px">0</text><text x="47.33333333333333" y="0" dx="0em" dy="0.95em" style="text-anchor: middle; visibility: hidden; font-family: &quot;Helvetica Neue&quot;, sans-serif; font-size: 12px; font-weight: 200;" fill="rgb(50, 49, 63)" stroke="none" stroke-width="1px">2k</text><text x="71" y="0" dx="0em" dy="0.95em" style="text-anchor: middle; visibility: inherit; font-family: &quot;Helvetica Neue&quot;, sans-serif; font-size: 12px; font-weight: 200;" fill="rgb(50, 49, 63)" stroke="none" stroke-width="1px">4k</text><text x="94.66666666666666" y="0" dx="0em" dy="0.95em" style="text-anchor: middle; visibility: hidden; font-family: &quot;Helvetica Neue&quot;, sans-serif; font-size: 12px; font-weight: 200;" fill="rgb(50, 49, 63)" stroke="none" stroke-width="1px">6k</text><text x="118.33333333333334" y="0" dx="0em" dy="0.95em" style="text-anchor: middle; visibility: inherit; font-family: &quot;Helvetica Neue&quot;, sans-serif; font-size: 12px; font-weight: 200;" fill="rgb(50, 49, 63)" stroke="none" stroke-width="1px">8k</text><text x="142" y="0" dx="0em" dy="0.95em" style="text-anchor: middle; visibility: hidden; font-family: &quot;Helvetica Neue&quot;, sans-serif; font-size: 12px; font-weight: 200;" fill="rgb(50, 49, 63)" stroke="none" stroke-width="1px">10k</text><text x="165.66666666666669" y="0" dx="0em" dy="0.95em" style="text-anchor: middle; visibility: inherit; font-family: &quot;Helvetica Neue&quot;, sans-serif; font-size: 12px; font-weight: 200;" fill="rgb(50, 49, 63)" stroke="none" stroke-width="1px">12k</text><text x="189.33333333333331" y="0" dx="0em" dy="0.95em" style="text-anchor: middle; visibility: hidden; font-family: &quot;Helvetica Neue&quot;, sans-serif; font-size: 12px; font-weight: 200;" fill="rgb(50, 49, 63)" stroke="none" stroke-width="1px">14k</text><text x="213" y="0" dx="0em" dy="0.95em" style="text-anchor: middle; visibility: inherit; font-family: &quot;Helvetica Neue&quot;, sans-serif; font-size: 12px; font-weight: 200;" fill="rgb(50, 49, 63)" stroke="none" stroke-width="1px">16k</text><text x="236.66666666666669" y="0" dx="0em" dy="0.95em" style="text-anchor: middle; visibility: hidden; font-family: &quot;Helvetica Neue&quot;, sans-serif; font-size: 12px; font-weight: 200;" fill="rgb(50, 49, 63)" stroke="none" stroke-width="1px">18k</text><text x="260.3333333333333" y="0" dx="0em" dy="0.95em" style="text-anchor: middle; visibility: inherit; font-family: &quot;Helvetica Neue&quot;, sans-serif; font-size: 12px; font-weight: 200;" fill="rgb(50, 49, 63)" stroke="none" stroke-width="1px">20k</text><text x="284" y="0" dx="0em" dy="0.95em" style="text-anchor: middle; visibility: hidden; font-family: &quot;Helvetica Neue&quot;, sans-serif; font-size: 12px; font-weight: 200;" fill="rgb(50, 49, 63)" stroke="none" stroke-width="1px">22k</text></g><line x1="0" y1="0" x2="284" y2="0" fill="rgb(0, 0, 0)" stroke="rgb(204, 204, 204)" stroke-width="1px"></line></g></g></g></g></svg>