<svg viewBox="0 0 330 200" xmlns="http://www.w3.org/2000/svg"><g><g><g><g><g><line x1="58" y1="178" x2="53" y2="178" style="visibility: inherit;" fill="rgb(0, 0, 0)" stroke="rgb(204, 204, 204)" stroke-width="1px"></line><line x1="58" y1="155.75" x2="53" y2="155.75" style="visibility: inherit;" fill="rgb(0, 0, 0)" stroke="rgb(204, 204, 204)" stroke-width="1px"></line><line x1="58" y1="133.5" x2="53" y2="133.5" style="visibility: inherit;" fill="rgb(0, 0, 0)" stroke="rgb(204, 204, 204)" stroke-width="1px"></line><line x1="58" y1="111.25" x2="53" y2="111.25" style="visibility: inherit;" fill="rgb(0, 0, 0)" stroke="rgb(204, 204, 204)" stroke-width="1px"></line><line x1="58" y1="89" x2="53" y2="89" style="visibility: inherit;" fill="rgb(0, 0, 0)" stroke="rgb(204, 204, 204)" stroke-width="1px"></line><line x1="58" y1="66.75" x2="53" y2="66.75" style="visibility: inherit;" fill="rgb(0, 0, 0)" stroke="rgb(204, 204, 204)" stroke-width="1px"></line><line x1="58" y1="44.5" x2="53" y2="44.5" style="visibility: inherit;" fill="rgb(0, 0, 0)" stroke="rgb(204, 204, 204)" stroke-width="1px"></line><line x1="58" y1="22.25" x2="53" y2="22.25" style="visibility: inherit;" fill="rgb(0, 0, 0)" stroke="rgb(204, 204, 204)" stroke-width="1px"></line><line x1="58" y1="0" x2="53" y2="0" style="visibility: inherit;" fill="rgb(0, 0, 0)" stroke="rgb(204, 204, 204)" stroke-width="1px"></line></g><g transform="translate(48, 0)"><text x="0" y="178" dx="0em" dy="0.3em" style="text-anchor: end; visibility: hidden; font-family: &quot;Helvetica Neue&quot;, sans-serif; font-size: 12px; font-weight: 200;" fill="rgb(50, 49, 63)" stroke="none" stroke-width="1px">-100</text><text x="0" y="155.75" dx="0em" dy="0.3em" style="text-anchor: end; visibility: inherit; font-family: &quot;Helvetica Neue&quot;, sans-serif; font-size: 12px; font-weight: 200;" fill="rgb(50, 49, 63)" stroke="none" stroke-width="1px">0</text><text x="0" y="133.5" dx="0em" dy="0.3em" style="text-anchor: end; visibility: hidden; font-family: &quot;Helvetica Neue&quot;, sans-serif; font-size: 12px; font-weight: 200;" fill="rgb(50, 49, 63)" stroke="none" stroke-width="1px">100</text><text x="0" y="111.25" dx="0em" dy="0.3em" style="text-anchor: end; visibility: inherit; font-family: &quot;Helvetica Neue&quot;, sans-serif; font-size: 12px; font-weight: 200;" fill="rgb(50, 49, 63)" stroke="none" stroke-width="1px">200</text><text x="0" y="89" dx="0em" dy="0.3em" style="text-anchor: end; visibility: hidden; font-family: &quot;Helvetica Neue&quot;, sans-serif; font-size: 12px; font-weight: 200;" fill="rgb(50, 49, 63)" stroke="none" stroke-width="1px">300</text><text x="0" y="66.75" dx="0em" dy="0.3em" style="text-anchor: end; visibility: inherit; font-family: &quot;Helvetica Neue&quot;, sans-serif; font-size: 12px; font-weight: 200;" fill="rgb(50, 49, 63)" stroke="none" stroke-width="1px">400</text><text x="0" y="44.5" dx="0em" dy="0.3em" style="text-anchor: end; visibility: hidden; font-family: &quot;Helvetica Neue&quot;, sans-serif; font-size: 12px; font-weight: 200;" fill="rgb(50, 49, 63)" stroke="none" stroke-width="1px">500</text><text x="0" y="22.25" dx="0em" dy="0.3em" style="text-anchor: end; visibility: inherit; font-family: &quot;Helvetica Neue&quot;, sans-serif; font-size: 12px; font-weight: 200;" fill="rgb(50, 49, 63)" stroke="none" stroke-width="1px">600</text><text x="0" y="0" dx="0em" dy="0.3em" style="text-anchor: end; visibility: hidden; font-family: &quot;Helvetica Neue&quot;, sans-serif; font-size: 12px; font-weight: 200;" fill="rgb(50, 49, 63)" stroke="none" stroke-width="1px">700</text></g><line x1="58" y1="0" x2="58" y2="178" fill="rgb(0, 0, 0)" stroke="rgb(204, 204, 204)" stroke-width="1px"></line></g></g><g transform="translate(58, 0)" clip-path="url(#clip_0)"><clipPath id="clip_0"><rect width="272" height="178"></rect></clipPath><g><g><g><line x1="0" y1="0" x2="0" y2="178" fill="rgb(0, 0, 0)" stroke="rgb(60, 60, 60)" stroke-width="1px" opacity="0.25"></line><line x1="22.666666666666664" y1="0" x2="22.666666666666664" y2="178" fill="rgb(0, 0, 0)" stroke="rgb(60, 60, 60)" stroke-width="1px" opacity="0.25"></line><line x1="45.33333333333333" y1="0" x2="45.33333333333333" y2="178" fill="rgb(0, 0, 0)" stroke="rgb(60, 60, 60)" stroke-width="1px" opacity="0.25"></line><line x1="68" y1="0" x2="68" y2="178" fill="rgb(0, 0, 0)" stroke="rgb(60, 60, 60)" stroke-width="1px" opacity="0.25"></line><line x1="90.66666666666666" y1="0" x2="90.66666666666666" y2="178" fill="rgb(0, 0, 0)" stroke="rgb(60, 60, 60)" stroke-width="1px" opacity="0.25"></line><line x1="113.33333333333334" y1="0" x2="113.33333333333334" y2="178" fill="rgb(0, 0, 0)" stroke="rgb(60, 60, 60)" stroke-width="1px" opacity="0.25"></line><line x1="136" y1="0" x2="136" y2="178" fill="rgb(0, 0, 0)" stroke="rgb(60, 60, 60)" stroke-width="1px" opacity="0.25"></line><line x1="158.66666666666669" y1="0" x2="158.66666666666669" y2="178" fill="rgb(0, 0, 0)" stroke="rgb(60, 60, 60)" stroke-width="1px" opacity="0.25"></line><line x1="181.33333333333331" y1="0" x2="181.33333333333331" y2="178" fill="rgb(0, 0, 0)" stroke="rgb(60, 60, 60)" stroke-width="1px" opacity="0.25"></line><line x1="204" y1="0" x2="204" y2="178" fill="rgb(0, 0, 0)" stroke="rgb(60, 60, 60)" stroke-width="1px" opacity="0.25"></line><line x1="226.66666666666669" y1="0" x2="226.66666666666669" y2="178" fill="rgb(0, 0, 0)" stroke="rgb(60, 60, 60)" stroke-width="1px" opacity="0.25"></line><line x1="249.33333333333331" y1="0" x2="249.33333333333331" y2="178" fill="rgb(0, 0, 0)" stroke="rgb(60, 60, 60)" stroke-width="1px" opacity="0.25"></line><line x1="272" y1="0" x2="272" y2="178" fill="rgb(0, 0, 0)" stroke="rgb(60, 60, 60)" stroke-width="1px" opacity="0.25"></line></g><g><line x1="0" y1="178" x2="272" y2="178" fill="rgb(0, 0, 0)" stroke="rgb(60, 60, 60)" stroke-width="1px" opacity="0.25"></line><line x1="0" y1="155.75" x2="272" y2="155.75" fill="rgb(0, 0, 0)" stroke="rgb(60, 60, 60)" stroke-width="1px" opacity="0.25"></line><line x1="0" y1="133.5" x2="272" y2="133.5" fill="rgb(0, 0, 0)" stroke="rgb(60, 60, 60)" stroke-width="1px" opacity="0.25"></line><line x1="0" y1="111.25" x2="272" y2="111.25" fill="rgb(0, 0, 0)" stroke="rgb(60, 60, 60)" stroke-width="1px" opacity="0.25"></line><line x1="0" y1="89" x2="272" y2="89" fill="rgb(0, 0, 0)" stroke="rgb(60, 60, 60)" stroke-width="1px" opacity="0.25"></line><line x1="0" y1="66.75" x2="272" y2="66.75" fill="rgb(0, 0, 0)" stroke="rgb(60, 60, 60)" stroke-width="1px" opacity="0.25"></line><line x1="0" y1="44.5" x2="272" y2="44.5" fill="rgb(0, 0, 0)" stroke="rgb(60, 60, 60)" stroke-width="1px" opacity="0.25"></line><line x1="0" y1="22.25" x2="272" y2="22.25" fill="rgb(0, 0, 0)" stroke="rgb(60, 60, 60)" stroke-width="1px" opacity="0.25"></line><line x1="0" y1="0" x2="272" y2="0" fill="rgb(0, 0, 0)" stroke="rgb(60, 60, 60)" stroke-width="1px" opacity="0.25"></line></g></g></g><g><g><line x1="0" y1="155.75" x2="272" y2="155.75" fill="rgb(0, 0, 0)" stroke="rgb(153, 153, 153)" stroke-width="1.5px"></line></g></g><g><g><line x1="22.666666666666664" y1="0" x2="22.666666666666664" y2="178" fill="rgb(0, 0, 0)" stroke="rgb(153, 153, 153)" stroke-width="1.5px"></line></g></g><g><g><g><g><g><path stroke="rgb(204, 51, 17)" stroke-width="2px" d="M22.882,-80.54499999999996L23.154000000000003,27.127110552763867L23.188000000000002,61.143773105282506L23.482666666666667,74.42446546529936L23.743333333333336,34.90504847546265L24.43466666666667,15.594925958267908L24.468666666666667,14.052645894196388L24.570666666666668,9.180793324914788L25.273333333333333,10.434708858307914L25.33,17.487810162054274L25.568,1.190756357535605L25.772,11.112783938300083L26.168666666666667,17.85350941488568L26.191333333333333,9.509127286937769L26.282,8.28903821029644L26.610666666666667,5.963501663220654L26.837333333333333,0.22872941082195553L27.449333333333335,3.8047832934732924L27.891333333333336,5.4034714773741825L28.049999999999997,9.652207123957936L28.752666666666666,6.303334825724875L29.058666666666667,9.294429321413446L29.24,13.55528962856539L29.319333333333333,10.794591776679795L29.330666666666666,11.98115535236937L29.704666666666668,16.539895078335803L29.863333333333333,14.654937293209684L30.01066666666667,13.857893894634742L30.169333333333334,11.180068687181944L30.282666666666668,11.49422324127272L30.77,13.95730156517996L30.860666666666667,12.60031490405666L31.348000000000003,14.97587063501041L31.393333333333334,17.57174097956161L31.416,20.68563547518201L31.574666666666666,20.590584055069343L31.597333333333335,24.068738877031763L31.676666666666666,26.737977737986142L31.767333333333333,30.07151785154724L31.835333333333335,31.49544415900624L32.15266666666667,32.51299608135943L33.388,33.19711499280288L33.68266666666667,33.70311436591413L33.694,34.92662598210407L33.762,34.08281341261727L33.83,33.78720260828129L34.034,30.83893727770996L34.068,27.800632030910066L34.169999999999995,27.949696699195357L34.72533333333334,29.80511262342739L34.75933333333333,31.19791212366127L35.065333333333335,32.43213685605005L35.13333333333334,34.91184591160203L35.19,36.80885600741615L35.779333333333334,32.913513812997905L35.836,33.98400904793306L35.84733333333333,35.148629443318015L36.05133333333333,36.58934694565008L36.19866666666667,38.497182867135365L36.77666666666667,39.14564809555114L36.96933333333333,36.88850693188985L37.592666666666666,36.85112525942057L37.626666666666665,38.356501707171304L37.785333333333334,38.21866542360203L37.830666666666666,38.65113544777449L38.37466666666667,36.2616220490134L38.454,33.001530718478875L38.70333333333333,32.622597250545255L38.839333333333336,33.14477510677858L38.952666666666666,34.91555045594575L39.29266666666666,35.513450239658454L39.41733333333333,34.97941161094076L39.576,35.25670989854771L39.93866666666667,34.85189131891488L40.26733333333333,32.634353936206224L40.44866666666667,34.40199572243486L40.63,36.34867873352482L40.67533333333333,38.07513261960341L40.867999999999995,39.84096428534565L41.26466666666667,39.44604336144607L41.74066666666667,41.13077478431657L41.842666666666666,41.89231839056572L42.04666666666667,41.82829366523006L42.14866666666667,42.39812492800877L42.30733333333333,43.31401055627049L42.330000000000005,44.58799274540641L42.364,45.277406825807645L42.86266666666666,45.972919478923046L43.37266666666667,44.07370176848693L43.57666666666667,43.845381060088755L43.678666666666665,45.133427817444215L43.826,46.20348744511497L43.86,46.981478068378266L43.95066666666666,47.75630260804698L44.404,48.55704042976899L44.59666666666667,46.25194508886278L44.71,47.06699071832037L44.744,47.89608166495216L45.356,49.20133768283435L45.492000000000004,50.218679205376645L45.75266666666666,50.99787682822742L46.206,51.95135769932291L46.21733333333333,52.88819813455555L46.30800000000001,53.94272115611915L46.35333333333333,54.31324614029805L46.43266666666666,54.72367876013365L47.03333333333333,55.436435321336035L47.11266666666666,56.05412254695425L47.464,57.107321766042276L47.50933333333333,56.98538267423325L47.599999999999994,57.25970576831092L47.69066666666667,57.98974007955924L47.736,57.62056241677067L47.96266666666667,58.06108962812992L48.019333333333336,58.869826525982575L48.03066666666667,58.977842697575355L48.257333333333335,58.9196995122679L48.314,59.84934661586797L48.71066666666667,60.531950631990085L48.824,60.03318567881608L48.96,60.862288894821475L49.25466666666667,61.70767004313859L49.35666666666667,59.74663531815803L49.75333333333334,60.57888546654597L49.76466666666667,61.47391986145915L49.78733333333333,61.99354161042645L50.286,60.55655007499686L50.376666666666665,60.50070814908669L50.47866666666666,61.31562085044848L50.501333333333335,62.36039046540111L50.55800000000001,62.32308766850811L50.84133333333334,62.51358275979254L50.852666666666664,62.46843642062777L50.966,63.043523965989465L50.98866666666667,63.62083827387454L51.04533333333334,64.34966491609273L51.204,64.50378782690053L51.272,65.43836761088873L51.373999999999995,65.50900539031845L51.544,66.19134715720891L51.612,66.61577111894083L52.21266666666667,67.51923887467419L53.108000000000004,68.17162312718517L53.312000000000005,68.16176251624593L53.73133333333333,68.679933498606L53.89,69.40089059865146L54.28666666666667,69.61159610802154L55.227333333333334,70.03167008787763L55.49933333333334,70.75465103676795L56.303999999999995,71.0090071400721L56.394666666666666,71.66120262612725L56.80266666666667,72.10147432532668L57.108666666666664,72.70495774955405L57.14266666666667,73.21999478831871L57.8,73.18595007716543L58.50266666666666,72.94159422277198L58.684,73.46637120497714L58.888,74.08945574474386L58.89933333333333,74.64176921789937L59.284666666666666,74.5430879309671L59.398,74.307120855113L59.432,74.4124187248325L59.443333333333335,74.65976002610664L59.466,74.506719718353L59.477333333333334,75.04580190051792L60.13466666666667,75.36858111115633L60.588,75.15045182833062L60.93933333333333,75.64514360883176L61.24533333333333,76.18168000344865L61.302,76.76209134044386L61.55133333333333,76.84614203474455L61.766666666666666,77.3807628528926L61.93666666666667,77.14651111325226L62.117999999999995,77.64827235440372L62.446666666666665,78.13754114606888L62.480666666666664,77.95465334831643L63.478,77.9884950426536L63.682,78.33977006978377L63.70466666666666,78.73678918190623L63.727333333333334,78.30606528264434L63.79533333333334,78.17079244931547L64.11266666666667,78.44557543633663L64.27133333333333,78.98905119076677L64.906,79.42999456620853L64.95133333333334,79.71730117148482L65.076,79.82705453820088L65.66533333333334,79.54930177534752L65.90333333333334,77.11544990399841L65.96,77.59012670931314L65.98266666666667,78.10280049601809L66.096,77.96193811543951L66.47,78.3357442249039L66.60600000000001,78.78510513901274L67.19533333333334,79.2985163468023L67.51266666666666,79.4632378798039L67.83,79.88951005510971L68.26066666666667,79.99262865462396L68.38533333333334,79.42170743445013L68.41933333333333,79.79237952841741L69.06533333333334,79.72142415531563L69.122,79.37947940357091L69.24666666666667,79.52352469837707L70.074,79.85750730537124L70.21,80.00840249464598L70.23266666666666,80.47353219760735L70.28933333333333,80.73405959412716L70.30066666666667,81.13869955071743L70.584,81.60161767591232L70.64066666666666,81.88874363283583L70.67466666666667,82.30891825857107L70.76533333333333,82.39506271794117L70.992,82.55585771134159L71.026,82.82051487162481L71.20733333333332,83.21528353822804L71.45666666666666,83.5095094548799L71.604,83.92309543655975L71.62666666666667,83.74956661322835L72.19333333333334,84.00658233015524L72.46533333333333,83.68994273191242L72.54466666666667,84.08442142608337L72.61266666666667,83.86752135748611L72.91866666666667,83.91255820015341L73.58733333333333,84.17364332529543L73.78,84.31710876776242L74.018,84.3818047992782L74.562,84.75334344140582L74.596,85.18970421041493L75.12866666666666,85.4424934713062L75.446,85.80098015997326L75.53666666666666,86.19707529351066L75.582,86.62781614862865L75.67266666666667,85.45147707999924L76.092,85.8107615744772L76.14866666666666,86.21733458327874L76.51133333333333,86.5207306134977L76.602,86.2855000706279L76.942,85.62655157079278L77.078,85.99673913097502L77.10066666666665,86.34535864412629L77.53133333333334,86.37451862663903L77.66733333333335,86.66702852602937L78.14333333333333,87.03410398810892L78.914,87.27495930650966L79.01599999999999,87.51294997027881L79.05000000000001,87.6824423065675L79.91133333333333,87.95198812028185L79.934,87.80075965387665L79.94533333333334,88.06609656982634L80.546,88.19501619341305L80.86333333333333,88.19893356805461L81.61133333333333,87.34885194058832L82.05333333333334,87.43929903114588L83.07333333333334,87.73395611424439L83.25466666666667,87.4991592127722L83.41333333333333,87.61185485949936L84.10466666666666,87.62447436853319L84.354,87.86559687223769L85.18133333333333,87.96924327238466L85.204,88.2374889933847L85.56666666666666,88.52903685598218L85.83866666666667,88.39976457902358L85.99733333333333,88.56684661772458L86.48466666666667,88.74637295932875L86.80199999999999,88.99803078413548L86.82466666666666,89.25157642429983L86.87,89.6479956864364L87.04,89.6529813914505L87.50466666666667,89.93950854870181L87.53866666666667,90.0892139338594L88.13933333333334,90.31108122370402L88.49066666666666,90.56613601958392L88.50200000000001,90.73975633120315L88.69466666666666,90.5261688573733L88.72866666666667,90.44095526405242L89.114,90.53243865165483L89.13666666666667,90.65136230788957L89.21600000000001,90.63850412127965L89.62400000000001,90.8817499930277L89.862,91.20277528092247L90.13399999999999,91.44917118366048L90.19066666666667,91.72827171898533L90.25866666666666,91.81748148793694L90.56466666666667,91.90096350415402L90.79133333333333,91.92920550650132L90.848,92.19308497100867L91.018,92.27714958757366L91.07466666666666,92.47575213820814L91.562,92.72395172106165L91.84533333333333,92.66807672976024L91.868,92.70222254880079L92.04933333333332,92.9852175115606L92.16266666666667,93.12406989102148L92.72933333333333,93.39524727015366L92.94466666666666,93.53431364576879L93.092,93.6507235653201L93.16000000000001,93.79397993538267L93.30733333333333,93.93565045348922L93.95333333333333,94.22799698194494L94.214,94.16831036031878L94.27066666666667,94.2192504018987L94.54266666666668,94.40292540855947L94.66733333333335,94.66404695652744L94.79199999999999,94.75175501626202L94.93933333333332,94.94590875501058L95.21133333333333,94.76684877514359L96.288,94.84868368953873L96.29933333333332,95.10915271411537L96.34466666666667,95.28054193031649L96.57133333333333,95.53624178861112L97.18333333333334,95.74258086048214L97.29666666666667,95.74652838032252L97.512,95.96210920224857L98.12400000000001,96.07303681521678L98.226,96.07120333326883L98.294,96.13907916901776L98.362,96.11333854540356L98.396,96.06931008100295L98.47533333333332,96.31807266376406L98.566,96.38093903399832L98.6,96.28318358587754L98.73599999999999,96.28843529419332L99.04199999999999,96.50439072830524L99.08733333333333,96.6601332505287L99.212,96.80956455994291L100.10733333333333,96.88104556105466L100.26599999999999,96.88238571446735L100.35666666666667,96.39831438182544L100.52666666666666,96.49939753879221L101.26333333333334,96.50469777457785L101.592,96.59305604318281L101.62599999999999,96.7981665788535L101.92066666666666,96.9618546261501L102.17,97.12839810162369L103.21266666666666,97.20785799314196L103.30333333333334,97.36021021504968L103.564,97.41417619838764L103.768,97.58961627587951L104.45933333333333,97.54218235327454L104.81066666666668,97.50676174912644L105.41133333333333,97.6856633517073L105.536,97.34982402513891L105.74,97.53482430504864L105.85333333333332,97.692572596024L105.86466666666666,97.86931683165069L106.08,98.00283944951298L106.34066666666668,97.90534988368616L106.556,96.52359474053434L106.99799999999999,96.73740639806755L107.03200000000001,96.93289095460094L107.11133333333333,96.93827169173252L107.22466666666666,97.01924235343483L107.25866666666666,96.77623332337116L107.42866666666667,96.92526132886958L107.80266666666667,96.95132659979676L108.018,96.91529671784377L108.91333333333333,97.11769756580412L109.31,97.3477063484074L109.50266666666667,97.29161872523589L109.67266666666667,97.34132477533124L109.79733333333334,97.54826434766382L109.86533333333333,97.43073455818748L110.14866666666666,97.50639193140393L110.262,97.59038999253895L110.46600000000001,97.70547755765965L110.59066666666668,97.82392019714713L110.62466666666667,97.74024205220694L110.85133333333334,97.89249756598237L110.942,98.1070345376236L111.05533333333334,98.30563231120279L111.452,98.50898583522337L111.50866666666666,98.51642469287457L112.19999999999999,98.69700545285426L112.21133333333333,98.62959818871072L112.574,98.60845943930873L113.152,98.64220359212479L113.24266666666666,98.68014849127312L113.63933333333334,98.8292443668545L113.76400000000001,98.5124838473286L113.9,98.60861510667219L114.09266666666666,98.49444834469936L114.77266666666667,98.72263681929111L115.38466666666667,98.85748608502479L115.43,99.01138859230295L115.58866666666667,99.18868754806637L115.78133333333334,98.9960041149641L115.84933333333333,99.0734186601341L116.32533333333333,99.16592681865541L116.50666666666667,99.1666318279081L116.63133333333334,99.31718391438969L116.824,99.52519068044352L117.05066666666667,99.63117128549348L117.10733333333333,99.74285724817413L117.13,99.78305279775999L117.19800000000001,99.91129232447389L117.42466666666667,97.49825679231445L117.45866666666667,97.69280981560027L117.51533333333333,97.82413625960554L117.61733333333333,98.00169692453251L118.63733333333333,97.95080722985746L118.64866666666666,97.94802420064475L118.67133333333334,98.05173704453863L118.98866666666667,98.28573650553027L119.04533333333333,95.94717242536284L119.102,95.84252117555432L119.75933333333334,96.01511731759837L120.054,96.05465940931452L120.15599999999999,96.22503844192579L120.53,96.36876877480294L120.54133333333333,96.4046952138325L120.64333333333333,96.45608249090105L121.074,96.60869949861606L121.16466666666668,96.63086518404205L121.22133333333333,96.64828086377763L121.584,96.90058256595951L122.11666666666667,96.94237190600045L122.162,96.98598984961346L122.42266666666667,96.99752956192822L122.62666666666667,97.05864477114892L122.66066666666667,95.74370756282589L122.89866666666666,95.90333917977023L123.02333333333333,96.07487405827897L123.29533333333333,96.15660134993504L123.37466666666667,96.16977297700448L123.56733333333332,96.32047566103698L123.58999999999999,96.40870275974228L123.62400000000001,96.11923956915182L123.862,96.12601489016117L123.94133333333333,96.0312205020801L124.202,96.19675345020077L124.39466666666667,96.09450323416456L124.59866666666667,96.31797073817536L124.66666666666666,96.29116721515548L124.78,96.24435239679357L124.99533333333333,96.34676512915733L125.30133333333333,96.39855139733206L125.39200000000001,96.57147763469682L125.63,96.58943509980418L126.43466666666666,95.64084338242256L127.23933333333333,95.63217986261292L127.31866666666667,95.79250835476695L127.62466666666667,96.00298549269453L127.86266666666667,96.01767856711011L128.15733333333333,96.22582707610162L128.25933333333333,96.37557113810574L128.62199999999999,96.6003068822831L128.86,96.61345243288358L129.34733333333332,96.84698171442083L129.38133333333334,96.99262573491053L129.608,97.19752216943522L129.68733333333333,97.24286437285002L129.982,97.42494336813664L130.77533333333332,97.34203646711758L130.87733333333333,97.54780946317764L130.95666666666665,97.73349347215999L131.10399999999998,97.92402634881176L131.35333333333332,96.15012353800975L131.478,96.19702202838528L131.784,96.39177849892945L132.05599999999998,96.53735497439757L132.124,94.38269385060669L132.38466666666667,94.60694745249691L132.58866666666665,94.88283374532288L133.28,94.9290205705417L133.382,95.06233818287939L133.88066666666668,95.30210431267477L134.198,95.42040216938784L134.232,95.48809282356842L134.68533333333332,95.67409765358134L134.95733333333334,95.93229834433181L135.69400000000002,95.94990676997827L136.578,96.20976786918807L136.63466666666665,96.3323120433405L136.66866666666667,96.2201976306695L136.82733333333334,96.45482261947171L136.96333333333334,96.63545020699561L137.224,96.86360371108213L137.292,97.07597594393114L137.46200000000002,97.33105692967187L137.64333333333332,95.57139268162904L137.9153333333333,93.35857757088174L138.108,93.52098340166386L138.78799999999998,93.68398192459148L138.91266666666667,93.85877959948247L139.13933333333333,92.13257109151068L139.21866666666668,92.4283550452354L139.27533333333332,92.6942323735132L140.49933333333334,92.82738705216912L140.53333333333336,93.0667877814656L140.77133333333333,93.36876094832759L140.828,93.63853327875395L141.31533333333334,93.78006592108282L141.44,93.93136761863609L141.5533333333333,94.07441231893289L141.59866666666665,94.2496159217907L141.92733333333334,94.36255003538254L142.02933333333334,94.61323925091598L142.29,94.7785009455772L142.30133333333333,94.99808802384113L142.43733333333333,95.19305108449558L142.78866666666667,95.38379887879847L142.89066666666668,95.45615656068308L143.08333333333331,95.63303403835152L143.14,95.6670455325738L143.242,95.86864750417851L143.33266666666665,95.70996953556283L143.42333333333335,95.85962057846929L143.616,96.03909851703929L143.956,96.12721678219245L144.06933333333333,96.29054998099501L144.48866666666666,94.04158059437647L144.59066666666666,94.11172744868513L144.602,94.29530432164164L144.85133333333334,94.35393935259272L144.93066666666667,94.61785641869609L145.24800000000002,94.76945956370491L145.36133333333333,95.09181840098755L145.418,95.29009839946522L145.54266666666666,95.51545809842361L145.64466666666667,95.61549655890876L145.8033333333333,95.8286118843842L146.234,95.92996499482089L146.26799999999997,96.07726619505311L146.65333333333334,96.08440576186821L146.69866666666667,93.77664840328221L146.95933333333332,93.71745439869645L147.02733333333333,93.06623497393186L147.05,93.19531920191125L147.50333333333333,93.36558533757167L147.57133333333334,93.51624411053427L147.594,93.6832684391937L147.71866666666668,91.18805481769719L147.77533333333332,91.41869793130404L147.934,91.50617347232213L148.036,91.65312279666637L148.21733333333336,91.92376748605922L148.50066666666666,89.78210505383609L148.71599999999998,90.03128780452914L148.81799999999998,90.17961513203593L149.022,90.20576006070218L149.328,90.35008684379342L149.58866666666665,90.64044949217126L149.61133333333333,90.71335909164296L149.62266666666667,89.75541494768362L150.29133333333334,90.0606495808244L150.32533333333333,90.41866460426421L150.42733333333334,90.62114085465126L150.858,90.90870756754049L151.43599999999998,91.03922485620573L152.00266666666664,91.15055463404829L152.09333333333333,91.24735890230264L152.50133333333332,91.48838385015851L152.694,91.5862563302759L152.92066666666665,91.88863507663824L153.238,92.04948794965607L153.272,92.11044852298888L153.35133333333334,92.22216213208999L153.374,92.36401609808193L153.56666666666666,92.47540953694543L153.65733333333333,92.61694441095153L153.75933333333333,92.80618028560129L153.92933333333332,92.93991947826657L154.11066666666667,93.03881875918277L154.55266666666665,93.24836152083584L154.68866666666668,93.45579425857521L154.82466666666667,93.4847603478212L154.94933333333333,93.7433881216902L155.108,93.94136764067856L155.13066666666668,94.07707916610956L155.53866666666667,94.29178851661261L155.9466666666667,94.43290444576233L156.25266666666664,94.61724375557506L156.42266666666666,92.23279797735347L156.7626666666667,92.45035634228977L157.03466666666668,92.58983841117326L157.23866666666666,92.71006175542367L157.61266666666666,90.67089411985292L157.91866666666667,90.99113063977349L158.066,91.25904812510967L158.08866666666665,91.42161549253461L158.32666666666665,91.6561890880574L158.38333333333333,91.74558743928615L158.542,91.97912961683426L158.65533333333332,92.24379343553969L158.71200000000002,92.2001071057175L158.79133333333334,92.37329031252267L159.00666666666666,92.55588790698347L159.14266666666666,92.72772497931504L159.53933333333333,91.51458113202567L160.242,91.63215113089034L160.412,91.75523192644107L160.53666666666666,91.93284721347175L160.582,92.21352529079802L160.76333333333335,92.35084436244887L161.13733333333334,92.49347526921053L161.23933333333335,92.63467259794905L161.738,92.82798486085102L161.96466666666666,93.01266275986775L161.99866666666668,93.1285705515282L162.17999999999998,93.38382994825618L162.36133333333333,93.6164511048165L163.16600000000003,93.91141388812042L163.26799999999997,94.07851864013966L163.61933333333332,94.2528653052997L163.8346666666667,94.38308749706633L163.86866666666666,92.10126276970331L164.118,92.32217534739874L164.85466666666667,92.5297188287517L164.94533333333334,92.86228467376796L165.18333333333334,93.03318730309223L165.43266666666668,93.3160957693551L165.76133333333334,93.46906419809277L166.28266666666664,93.66732119320746L166.60000000000002,93.81676337095355L167.2686666666667,94.06949878790273L167.45,94.37989584028959L167.80133333333333,94.62697784748919L168.13,94.61964319958373L168.41333333333333,94.85985387361748L168.47,95.12217655515393L168.61733333333333,95.29269020252802L168.76466666666667,95.44588663570342L168.83266666666665,95.67334128576607L169.30866666666668,95.88513711696358L169.32000000000002,95.97665868157705L169.54666666666665,96.10292830325093L170.204,96.24799267376355L170.39666666666668,96.34924839344538L170.7026666666667,96.42496834932517L170.714,96.53782145788315L170.80466666666666,96.6027337213298L170.94066666666666,96.65362100662057L171.07666666666665,96.88453741881854L171.24666666666667,96.95488848101785L171.292,96.95098292204828L171.48466666666667,97.13210451401876L171.68866666666668,97.30249385061495L171.89266666666666,97.34413796352244L172.06266666666667,97.4789679140117L172.176,97.66816069861976L172.21,97.72174029495106L172.346,97.81266772070173L172.35733333333334,97.85365567602908L172.40266666666668,97.9789146608009L172.72,98.04052072555731L173.01466666666667,98.3020656904688L173.38866666666667,98.4785373407643L173.55866666666668,98.56856196687873L173.96666666666664,98.67551012121257L174.56733333333332,98.80589665464822L174.61266666666666,98.86589999567585L174.83933333333334,98.85845527163312L175.39466666666667,98.92461506872948L175.72333333333333,98.98788324187841L176.19933333333333,99.02155146789688L176.77733333333333,99.08607523691991L176.94733333333335,99.09870678846498L177.03799999999998,99.03545894402937L177.106,99.10429677869244L177.67266666666666,99.34176946170874L177.70666666666665,99.40308244988341L177.74066666666667,99.535073577835L177.888,99.5498919537616L178.194,99.74947286567132L178.47733333333335,99.8178395569176L178.55666666666667,99.98354352723925L178.806,100.02060400654874L179.19133333333332,100.19764010487968L179.588,100.377356925925L179.84866666666665,100.41715619987848L179.88266666666667,100.4944265967279L180.03,100.55532908550394L180.07533333333333,100.60002793177439L180.63066666666668,100.69551291322949L180.642,100.76999292944451L180.85733333333334,100.80140354959828L180.89133333333334,100.87482177537665L180.99333333333334,100.8918174099135L181.00466666666668,98.73242790074391L181.07266666666666,98.95574640673328L181.29933333333335,99.05432003721674L181.322,99.14745107117541L182.25133333333332,99.42229148388934L182.31933333333333,99.57632943556234L183.16933333333333,99.71323268370506L183.84933333333333,99.77080928929911L183.91733333333335,99.19304073618257L184.178,99.32264034049891L184.59733333333332,99.48880396212851L184.60866666666666,99.56421506793701L184.67666666666668,99.77027349126186L184.77866666666668,99.90968009556715L184.97133333333332,99.96305921903243L185.10733333333334,100.04708298507697L185.17533333333333,100.15253575661889L185.40200000000002,100.22129905176665L185.44733333333335,100.42076885974132L185.844,99.96572332760793L186.41066666666666,99.9762255272507L186.68266666666668,100.10687944986608L186.94333333333333,100.24290540053279L187.35133333333334,100.21945591010731L187.62333333333333,100.1784259506449L187.65733333333333,100.1778912344025L188.33733333333333,100.3443781072554L188.50733333333332,100.4468451081925L188.57533333333333,100.52379042904646L188.9153333333333,98.74724485570404L189.0173333333333,98.81670382884259L189.06266666666667,98.93222969408065L189.13066666666668,99.06886617858997L189.79933333333335,99.2620297637594L189.93533333333332,99.35973570553213L190.17333333333335,99.3807545853843L190.18466666666666,99.5218049101152L190.23,99.71488304413519L190.27533333333332,99.83032073976425L190.32066666666668,99.87334946192966L190.51333333333335,100.0072393270624L190.58133333333333,100.15982790925163L190.62666666666667,100.27748934788012L190.93266666666668,100.37170661364576L191.23866666666666,100.50060550944558L191.454,100.64602604914327L191.81666666666666,100.76772496063943L191.828,100.73012196332671L191.83933333333334,99.39706709567024L192.11133333333333,99.54462044759325L192.84799999999998,99.79088786018859L192.984,99.9211396539159L193.698,100.1235600667705L194.174,100.35512374474966L194.21933333333334,100.56655744604443L194.71800000000002,100.65564816143333L194.93333333333334,100.79728027183018L195.35266666666666,101.01541755124858L195.69266666666667,101.13118434776806L195.772,101.25247111683754L195.88533333333334,101.31465877177101L196.08933333333334,101.0868016428214L196.35000000000002,101.29980906717243L196.54266666666666,101.48619464195355L196.61066666666667,101.55717366349973L196.69,101.77437603897407L197.22266666666667,101.99608269763735L197.27933333333334,101.96177765842575L197.46066666666667,101.85880278837372L197.52866666666668,101.79025213328374L197.642,101.96504459547066L197.846,102.10914667259158L198.03866666666667,102.19615154410391L198.06133333333332,102.17320292859986L198.424,102.37087408266656L198.65066666666667,102.38847443726388L198.77533333333332,102.32798374541217L199.308,102.41947524760059L199.444,102.5612515855102L199.56866666666664,102.58807738630574L200.294,102.54785184368326L200.64533333333333,102.68611559518574L201.06466666666668,102.72059604736812L201.33666666666667,102.72801862636186L201.43866666666668,102.82218289343994L201.50666666666666,102.93098691538017L201.67666666666668,103.03202379482504L201.86933333333332,103.10311111924894L202.02800000000002,103.13341875199099L202.06199999999998,103.22797701604014L202.27733333333333,103.32604083099869L202.49266666666668,103.27620849585693L203.77333333333334,103.35820713048803L203.864,103.34144282947967L203.93200000000002,103.26919755654775L204.204,103.28671298429629L204.21533333333332,103.23950109877421L204.64600000000002,103.15492104942832L204.952,103.28042330992811L205.088,102.62782911127941L205.326,102.56940233501754L205.99466666666666,100.7041410513083L206.142,100.88977277221025L206.25533333333334,100.96670504962208L206.30066666666667,100.97163990457153L206.58399999999997,101.04997845111616L206.83333333333331,101.08524201160951L207.64933333333332,100.49914500922905L207.89866666666666,100.43753070606968L207.944,100.24075814487722L207.96666666666664,100.26853566122821L207.978,99.39235997865126L208.09133333333332,98.97233672874695L208.31799999999998,98.86367503352612L208.61266666666666,98.066109773475L208.99800000000002,97.57700458820916L209.10000000000002,97.46227027441293L209.73466666666667,97.5245186631859L210.34666666666666,97.30347432943414L210.64133333333334,97.46524330729412L210.698,97.65877950210606L210.92466666666667,96.94228350402088L211.50266666666664,97.01195811969997L211.548,97.141029712359L211.91066666666666,97.02620815342306L212.46599999999998,96.77009099633808L212.69266666666667,96.5432448717109L213.05533333333335,96.52343135153163L213.16866666666667,95.63357708652441L213.17999999999998,95.6317657716628L213.46333333333334,95.65445486006959L213.56533333333334,94.57521763185422L213.724,94.36810510043192L214.2,94.1185520538708L214.48333333333335,94.22537204251248L215.33333333333331,93.39858454221887L216.09266666666667,92.28628733218554L216.444,91.73262102129944L216.82933333333335,91.14220782606913L216.84066666666666,90.50651308348714L217.09,90.14870173754056L217.52066666666667,90.08157184951726L217.57733333333334,90.13752087627093L217.634,89.72998933746534L217.74733333333336,89.28202373309558L218.0533333333333,88.97652537364175L218.06466666666668,88.45152720976L218.144,88.64618572520571L218.30266666666665,88.24912534729897L218.42733333333334,87.8449098007545L218.63133333333334,87.94103407896333L218.654,88.00503914774973L218.91466666666665,87.74347641331705L218.926,87.56242392722052L218.93733333333333,87.67250040234974L218.97133333333332,87.27628376576901L219.18666666666667,87.31132895192187L219.58333333333331,86.2399478161064L219.776,86.27868202989951L219.92333333333335,86.07667533261815L219.93466666666666,85.81437589063353L220.048,85.72383741833195L220.17266666666666,85.62975376369613L220.286,84.98914451871117L220.37666666666667,84.9424682123112L220.49,84.96747376023302L221.04533333333333,85.1368841013846L221.136,84.83280292580035L221.18133333333336,84.62968367485968L221.49866666666668,84.36405847033492L221.65733333333333,82.34966721376759L221.72533333333334,81.94439073635263L221.884,80.38149214740353L221.90666666666667,80.08491998838669L221.986,80.31428961348031L222.06533333333334,80.21200236906074L222.07666666666665,80.45567797723787L222.122,80.71249380910908L222.40533333333332,80.62847845098658L222.5186666666667,80.8457331422761L222.56400000000002,80.51781682335272L222.74533333333332,80.7027965976078L222.904,80.62555501346878L223.31199999999998,78.34372618598212L223.32333333333332,78.1498804280377L223.40266666666668,78.53212201368721L223.52733333333333,78.18951777045814L224.08266666666665,78.10625863308091L224.094,78.3821168360944L224.15066666666667,78.29025557228108L224.45666666666665,77.62294445469938L224.66066666666666,77.76343763779742L224.88733333333334,76.99903137830741L226.14533333333333,75.95520129218606L226.24733333333336,75.78524771975856L226.42866666666666,75.75496555753757L226.46266666666668,75.96087243972923L226.56466666666668,75.98669263053887L226.882,75.92324117907897L227.2673333333333,75.9071563768287L227.27866666666668,75.88233116052953L227.38066666666668,76.13369446214408L227.41466666666665,75.90632473035544L227.85666666666668,75.9905485068355L228.02666666666667,76.19854741874586L228.14,76.46677447463169L228.31,76.59880001804433L228.33266666666665,75.0538501516967L228.42333333333335,74.78164969534515L228.60466666666667,74.93275350760166L228.83133333333333,75.03783995549851L229.10333333333332,74.87929067008719L229.35266666666666,75.18296236633356L229.67,75.39903563979453L229.806,75.57289250551345L230.28199999999998,75.75613676823781L230.316,76.0577131805021L230.78066666666666,76.15154768625179L230.87133333333335,76.37796000872503L231.78933333333333,76.59098130224594L231.80066666666667,75.96294591235974L232.78666666666666,74.41993262610534L232.87733333333333,74.6080304848216L233.376,74.88103205682935L233.38733333333334,75.3204225283602L233.96533333333332,75.68643518984261L234.06733333333332,74.15064683873062L234.64533333333333,74.36146401631176L234.75866666666667,74.34319734778576L234.838,74.087012211534L234.89466666666667,74.220581626048L235.16666666666669,73.86993803014882L235.586,74.2148504403655L235.77866666666668,74.28928479620014L236.25466666666668,73.95130661478055L236.7986666666667,74.31320600455702L237.25199999999998,74.5379719747492L237.53533333333334,74.78719253557543L237.75066666666666,75.06284829272032L237.80733333333333,74.95968455326154L237.864,75.22471379342512L238.06799999999998,75.38028181426779L238.12466666666666,75.69005887940692L238.18133333333336,74.15648683082232L238.31733333333332,74.51410577444206L238.55533333333335,74.82141848174757L239.088,74.96989305545566L239.326,75.16138669237635L239.74533333333332,75.38879347895066L239.92666666666668,75.37137897836068L240.31199999999998,75.23397795789874L240.43666666666667,74.62843481524179L240.58399999999997,75.07701460257042L241.00333333333333,75.00486322478355L241.08266666666665,75.15595251171833L241.128,75.12084001426255L241.41133333333335,75.27299436546888L241.706,75.35242101162844L242.624,75.41102661523728L242.658,75.54025185719686L242.71466666666666,75.75719180296016L243.28133333333332,75.2888325576093L243.508,75.43930610455784L243.678,75.35240625558565L243.71200000000002,75.52004515670424L243.73466666666667,75.77501422496591L243.96133333333333,75.94732714266694L244.02933333333334,76.10679083646099L244.29,76.32918944870954L244.57333333333332,76.79635691016516L244.596,76.77821702037888L244.74333333333334,76.92492042418867L244.9813333333333,76.92774642160066L245.1966666666667,77.26431773384267L245.26466666666667,77.25039858304451L245.42333333333335,77.65939791524491L245.548,77.88629448871326L245.64999999999998,78.17322601486433L245.69533333333334,78.12796571408643L246.17133333333334,78.18774003248313L246.25066666666666,78.28251887277939L246.296,78.4609053122774L246.35266666666666,78.49064817857294L246.364,78.95399629935706L246.81733333333332,79.03666156490146L247.03266666666664,79.24978329430012L247.33866666666665,79.44964785113089L247.59933333333333,79.6853408373201L247.928,79.93647768732679L248.39266666666666,79.96481461491007L248.506,80.29103589463898L248.642,80.32472752190435L248.8346666666667,79.5370092729632L249.016,79.27339894895472L249.10666666666668,79.13703215904914L249.20866666666666,79.32689758948305L249.28799999999998,79.53266514962007L249.74133333333333,79.63624424705168L249.82066666666668,79.66535840433866L249.88866666666667,79.8966674031056L249.94533333333334,80.1790659374475L250.01333333333335,79.9913652706715L250.0473333333333,80.25946576900375L250.90866666666668,80.69399381747483L250.92,80.83046093904689L250.94266666666667,81.11242077019965L251.022,81.2313525926677L251.158,81.33129408337598L251.41866666666667,81.310080088339L251.4526666666667,81.46263679276096L251.804,81.78945134228888L252.0533333333333,82.13747360973663L252.11,82.21277746831632L252.144,82.47868726007067L252.20066666666665,82.4459988581205L252.6653333333333,82.73405221154653L252.83533333333335,82.66543354294568L253.00533333333334,82.86451324495995L253.10733333333334,82.81239077001443L253.13,82.55163026036841L253.34533333333334,82.68286973857484L253.572,82.9997048575197L253.606,83.3912497124243" style="fill: none;" fill="none"></path></g></g></g></g><g opacity="0.2"><g><g><g><path stroke="rgb(204, 51, 17)" stroke-width="2px" d="M22.882,-80.54499999999996L23.154000000000003,133.7225L23.188000000000002,128.16L23.482666666666667,113.47500000000001L23.743333333333336,-119.25999999999999L24.43466666666667,-78.09749999999997L24.468666666666667,5.117500000000007L24.570666666666668,-23.585000000000008L25.273333333333333,20.025000000000006L25.33,77.875L25.568,-153.08000000000004L25.772,113.92L26.168666666666667,93.6725L26.191333333333333,-91.66999999999996L26.837333333333333,-84.10499999999996L27.449333333333335,59.4075L27.891333333333336,31.595L28.049999999999997,82.77L28.752666666666666,-54.067499999999995L29.058666666666667,65.6375L29.24,97.2325L29.319333333333333,-45.61250000000001L29.330666666666666,37.1575L29.704666666666668,116.8125L29.863333333333333,-28.257499999999993L30.169333333333334,-53.845L30.282666666666668,19.357500000000016L30.77,77.43L30.860666666666667,-23.36250000000001L31.348000000000003,79.655L31.393333333333334,90.1125L31.416,109.91499999999999L31.574666666666666,17.799999999999983L31.597333333333335,128.605L31.676666666666666,108.80250000000001L31.767333333333333,134.835L31.835333333333335,77.2075L32.15266666666667,65.86L33.388,56.06999999999999L33.68266666666667,50.9525L33.694,77.43L33.762,4.2275000000000205L33.83,23.140000000000015L34.034,-77.20750000000001L34.068,-85.44L34.169999999999995,33.5975L34.72533333333334,101.2375L34.75933333333333,85.6625L35.065333333333335,81.435L35.13333333333334,134.835L35.19,114.36500000000001L35.779333333333334,-128.60499999999996L35.836,78.9875L35.84733333333333,84.7725L36.05133333333333,98.78999999999999L36.19866666666667,121.93L36.77666666666667,67.8625L36.96933333333333,-64.30250000000001L37.592666666666666,35.155L37.626666666666665,107.4675L37.785333333333334,31.817499999999995L37.830666666666666,58.962500000000006L38.37466666666667,-77.20750000000001L38.454,-123.48750000000001L38.70333333333333,14.23999999999998L38.839333333333336,58.739999999999995L38.952666666666666,122.5975L39.29266666666666,65.415L39.41733333333333,8.01000000000002L39.576,49.39499999999998L39.93866666666667,14.017499999999984L40.26733333333333,-82.54750000000001L40.44866666666667,127.0475L40.63,139.285L40.67533333333333,130.1625L40.867999999999995,134.835L41.26466666666667,18.02249999999998L41.74066666666667,133.2775L41.842666666666666,83.8825L42.04666666666667,38.26999999999998L42.14866666666667,74.315L42.30733333333333,95.00750000000001L42.330000000000005,117.035L42.364,84.7725L42.86266666666666,86.1075L43.37266666666667,-66.305L43.57666666666667,30.482500000000016L43.678666666666665,121.03999999999999L43.826,109.69250000000001L43.86,93.45L43.95066666666666,94.34L44.404,97.00999999999999L44.59666666666667,-94.1175L44.71,97.00999999999999L44.744,99.0125L45.356,130.1625L45.492000000000004,113.69749999999999L45.75266666666666,99.9025L46.206,112.14L46.21733333333333,112.3625L46.30800000000001,121.2625L46.35333333333333,78.0975L46.43266666666666,81.2125L47.03333333333333,101.68249999999999L47.11266666666666,96.3425L47.464,126.1575L47.50933333333333,48.95000000000002L47.599999999999994,75.4275L47.69066666666667,106.5775L47.736,32.93000000000001L47.96266666666667,87.665L48.019333333333336,113.47500000000001L48.03066666666667,66.305L48.257333333333335,54.957499999999996L48.314,123.4875L48.71066666666667,107.4675L48.824,25.587500000000006L48.96,118.37L49.25466666666667,120.595L49.35666666666667,-77.43L49.75333333333334,119.0375L49.76466666666667,124.6L49.78733333333333,98.78999999999999L50.286,-41.60749999999999L50.376666666666665,56.515L50.47866666666666,119.705L50.501333333333335,137.505L50.55800000000001,59.629999999999995L50.84133333333334,76.3175L50.852666666666664,59.185L50.966,105.02000000000001L50.98866666666667,105.91L51.04533333333334,117.925L51.204,75.8725L51.272,134.6125L51.373999999999995,70.755L51.544,117.035L51.612,98.345L52.21266666666667,135.28L53.108000000000004,117.2575L53.312000000000005,67.4175L53.73133333333333,107.91250000000001L53.89,124.155L54.28666666666667,85.6625L55.227333333333334,102.1275L55.49933333333334,126.1575L56.303999999999995,90.55749999999999L56.394666666666666,121.93L56.80266666666667,106.13250000000001L57.108666666666664,119.4825L57.14266666666667,113.2525L57.8,70.5325L58.50266666666666,53.845L58.684,114.5875L58.888,123.04249999999999L58.89933333333333,118.14750000000001L59.284666666666666,66.75L59.398,55.625L59.432,82.77L59.443333333333335,94.34L59.466,62.3L59.477333333333334,118.14750000000001L60.13466666666667,101.2375L60.588,57.6275L60.93933333333333,115.47749999999999L61.24533333333333,119.4825L61.302,123.71000000000001L61.55133333333333,83.66L61.766666666666666,120.8175L61.93666666666667,58.072500000000005L62.117999999999995,118.5925L62.446666666666665,118.14750000000001L62.480666666666664,62.9675L63.478,80.7675L63.682,107.24499999999999L63.70466666666666,111.4725L63.727333333333334,42.72L63.79533333333334,66.9725L64.11266666666667,101.2375L64.27133333333333,124.155L64.906,116.14500000000001L64.95133333333334,103.685L65.076,89L65.66533333333334,56.292500000000004L65.90333333333334,-127.04750000000001L65.96,117.47999999999999L65.98266666666667,121.2625L66.096,66.0825L66.47,109.91499999999999L66.60600000000001,116.8125L67.19533333333334,122.82L67.51266666666666,93.45L67.83,116.14500000000001L68.26066666666667,88.7775L68.38533333333334,30.704999999999984L68.41933333333333,111.4725L69.06533333333334,73.6475L69.122,50.0625L69.24666666666667,91.8925L70.074,108.58L70.21,93.00500000000001L70.23266666666666,120.595L70.28933333333333,103.24000000000001L70.30066666666667,116.14500000000001L70.584,121.70750000000001L70.64066666666666,106.8L70.67466666666667,118.815L70.76533333333333,89.89L70.992,96.565L71.026,105.91L71.20733333333332,117.7025L71.45666666666666,109.2475L71.604,120.15L71.62666666666667,68.53L72.19333333333334,106.5775L72.46533333333333,55.8475L72.54466666666667,118.815L72.61266666666667,64.7475L72.91866666666667,87.8875L73.58733333333333,107.24499999999999L73.78,97.00999999999999L74.018,90.1125L74.562,117.7025L74.596,123.9325L75.12866666666666,107.91250000000001L75.446,117.7025L75.53666666666666,121.485L75.582,125.045L75.67266666666667,-19.580000000000013L76.092,117.925L76.14866666666666,122.5975L76.51133333333333,113.69749999999999L76.602,65.1925L76.942,26.47750000000002L77.078,119.25999999999999L77.10066666666665,117.7025L77.53133333333334,89L77.66733333333335,113.03L78.14333333333333,120.15L78.914,109.02499999999999L79.01599999999999,109.02499999999999L79.05000000000001,103.0175L79.91133333333333,112.3625L79.934,74.0925L79.94533333333334,112.14L80.546,99.9025L80.86333333333333,88.555L81.61133333333333,10.012500000000017L82.05333333333334,95.675L83.07333333333334,114.5875L83.25466666666667,66.0825L83.41333333333333,97.89999999999999L84.10466666666666,88.7775L84.354,109.91499999999999L85.18133333333333,97.455L85.204,112.80749999999999L85.56666666666666,115.255L85.83866666666667,76.54L85.99733333333333,103.9075L86.48466666666667,105.24249999999999L86.80199999999999,112.14L86.82466666666666,112.58500000000001L86.87,126.1575L87.04,90.1125L87.50466666666667,116.3675L87.53866666666667,103.9075L88.13933333333334,110.80499999999999L88.49066666666666,114.1425L88.50200000000001,106.8L88.69466666666666,70.755L88.72866666666667,82.5475L89.114,99.0125L89.13666666666667,101.68249999999999L89.21600000000001,89.44500000000001L89.62400000000001,113.47500000000001L89.862,121.03999999999999L90.13399999999999,114.36500000000001L90.19066666666667,117.7025L90.25866666666666,100.125L90.56466666666667,99.67999999999999L90.79133333333333,94.5625L90.848,116.8125L91.018,100.125L91.07466666666666,111.0275L91.562,115.9225L91.84533333333333,87.4425L91.868,95.89750000000001L92.04933333333332,119.4825L92.16266666666667,106.13250000000001L92.72933333333333,118.815L92.94466666666666,106.5775L93.092,104.575L93.16000000000001,107.24499999999999L93.30733333333333,107.24499999999999L93.95333333333333,121.70750000000001L94.214,88.555L94.27066666666667,99.0125L94.54266666666668,111.69500000000001L94.66733333333335,119.25999999999999L94.79199999999999,103.0175L94.93933333333332,113.2525L95.21133333333333,77.875L96.288,102.57249999999999L96.29933333333332,119.705L96.34466666666667,111.4725L96.57133333333333,119.705L97.18333333333334,115.255L97.29666666666667,96.11999999999999L97.512,116.3675L98.12400000000001,106.5775L98.226,95.89750000000001L98.294,102.57249999999999L98.362,93.6725L98.396,91.8925L98.47533333333332,119.92750000000001L98.566,102.35000000000001L98.6,86.9975L98.73599999999999,96.78750000000001L99.04199999999999,117.035L99.08733333333333,111.4725L99.212,111.0275L100.10733333333333,103.685L100.26599999999999,97.00999999999999L100.35666666666667,50.285L100.52666666666666,106.13250000000001L101.26333333333334,97.00999999999999L101.592,105.02000000000001L101.62599999999999,116.3675L101.92066666666666,112.58500000000001L102.17,113.03L103.21266666666666,104.7975L103.30333333333334,111.91749999999999L103.564,102.57249999999999L103.768,114.36500000000001L104.45933333333333,93.00500000000001L104.81066666666668,94.11749999999999L105.41133333333333,114.81L105.536,65.1925L105.74,115.255L105.85333333333332,112.80749999999999L105.86466666666666,114.81L106.08,110.80499999999999L106.34066666666668,88.555L106.556,-36.04499999999999L106.99799999999999,117.2575L107.03200000000001,115.7L107.11133333333333,97.455L107.22466666666666,104.7975L107.25866666666666,73.425L107.42866666666667,111.25L107.80266666666667,99.45750000000001L108.018,93.45L108.91333333333333,116.59L109.31,119.4825L109.50266666666667,91.8925L109.67266666666667,102.1275L109.79733333333334,117.47999999999999L109.86533333333333,86.1075L110.14866666666666,104.7975L110.262,105.6875L110.46600000000001,108.80250000000001L110.59066666666668,109.2475L110.62466666666667,89.66749999999999L110.85133333333334,112.58500000000001L110.942,118.815L111.05533333333334,117.47999999999999L111.452,118.14750000000001L111.50866666666666,99.235L112.19999999999999,116.14500000000001L112.21133333333333,92.11500000000001L112.574,96.565L113.152,101.905L113.24266666666666,102.35000000000001L113.63933333333334,113.2525L113.76400000000001,67.8625L113.9,107.91250000000001L114.09266666666666,87.4425L114.77266666666667,120.8175L115.38466666666667,111.91749999999999L115.43,113.92L115.58866666666667,116.3675L115.78133333333334,80.3225L115.84933333333333,106.5775L116.32533333333333,108.13499999999999L116.50666666666667,99.235L116.63133333333334,113.92L116.824,119.705L117.05066666666667,109.91499999999999L117.10733333333333,110.58250000000001L117.13,103.685L117.19800000000001,112.3625L117.42466666666667,-136.83750000000003L117.45866666666667,116.59L117.51533333333333,110.58250000000001L117.61733333333333,115.255L118.63733333333333,93.00500000000001L118.64866666666666,97.67750000000001L118.67133333333334,108.13499999999999L118.98866666666667,121.03999999999999L119.04533333333333,-131.4975L119.102,85.6625L119.75933333333334,112.80749999999999L120.054,99.9025L120.15599999999999,112.80749999999999L120.53,110.36L120.54133333333333,99.9025L120.64333333333333,101.46000000000001L121.074,111.4725L121.16466666666668,98.78999999999999L121.22133333333333,98.345L121.584,121.485L122.11666666666667,101.015L122.162,101.2375L122.42266666666667,98.1225L122.62666666666667,103.0175L122.66066666666667,-32.485000000000014L122.89866666666666,111.4725L123.02333333333333,112.80749999999999L123.29533333333333,104.13000000000001L123.37466666666667,97.455L123.56733333333332,111.0275L123.58999999999999,105.02000000000001L123.62400000000001,67.8625L123.862,96.78750000000001L123.94133333333333,86.775L124.202,112.3625L124.39466666666667,86.1075L124.59866666666667,118.14750000000001L124.66666666666666,93.6725L124.78,91.67L124.99533333333333,106.35499999999999L125.30133333333333,101.46000000000001L125.39200000000001,113.47500000000001L125.63,98.345L126.43466666666666,2.892499999999984L127.23933333333333,94.785L127.31866666666667,111.4725L127.62466666666667,116.59L127.86266666666667,97.455L128.15733333333333,116.59L128.25933333333333,111.0275L128.62199999999999,118.5925L128.86,97.89999999999999L129.34733333333332,119.705L129.38133333333334,111.25L129.608,117.2575L129.68733333333333,101.68249999999999L129.982,115.255L130.77533333333332,89.2225L130.87733333333333,117.7025L130.95666666666665,115.9225L131.10399999999998,116.59L131.35333333333332,-77.6525L131.478,100.79249999999999L131.784,115.47749999999999L132.05599999999998,110.80499999999999L132.124,-116.8125L132.38466666666667,116.59L132.58866666666665,121.93L133.28,99.45750000000001L133.382,108.13499999999999L133.88066666666668,118.815L134.198,107.02250000000001L134.232,102.1275L134.68533333333332,113.92L134.95733333333334,121.2625L135.69400000000002,97.67750000000001L136.578,121.70750000000001L136.63466666666665,108.3575L136.66866666666667,85.2175L136.82733333333334,119.4825L136.96333333333334,114.36500000000001L137.224,119.25999999999999L137.292,117.925L137.46200000000002,122.375L137.64333333333332,-77.20750000000001L137.9153333333333,-123.9325L138.108,109.47L138.78799999999998,109.69250000000001L138.91266666666667,111.0275L139.13933333333333,-77.43L139.21866666666668,121.485L139.27533333333332,118.815L140.49933333333334,105.91L140.53333333333336,116.59L140.77133333333333,123.04249999999999L140.828,120.15L141.31533333333334,107.69L141.44,108.80250000000001L141.5533333333333,108.13499999999999L141.59866666666665,111.4725L141.92733333333334,105.465L142.02933333333334,119.25999999999999L142.29,111.0275L142.30133333333333,116.59L142.43733333333333,114.36500000000001L142.78866666666667,114.1425L142.89066666666668,102.57249999999999L143.08333333333331,113.03L143.14,99.0125L143.242,115.7L143.33266666666665,80.1L143.42333333333335,110.58250000000001L143.616,113.69749999999999L143.956,104.7975L144.06933333333333,112.3625L144.48866666666666,-127.27000000000004L144.59066666666666,101.015L144.602,112.3625L144.85133333333334,100.125L144.93066666666667,120.595L145.24800000000002,109.69250000000001L145.36133333333333,126.825L145.418,114.81L145.54266666666666,117.7025L145.64466666666667,105.465L145.8033333333333,116.8125L146.234,105.91L146.26799999999997,110.58250000000001L146.65333333333334,96.78750000000001L146.69866666666667,-133.5L146.95933333333332,87.8875L147.02733333333333,28.924999999999983L147.05,105.91L147.50333333333333,110.1375L147.57133333333334,108.3575L147.594,110.1375L147.71866666666668,-154.6375L147.77533333333332,114.1425L147.934,100.125L148.036,106.13250000000001L148.21733333333336,118.5925L148.50066666666666,-121.26249999999999L148.71599999999998,114.5875L148.81799999999998,104.7975L149.022,92.7825L149.328,104.575L149.58866666666665,119.25999999999999L149.61133333333333,97.89999999999999L149.62266666666667,-4.672500000000014L150.29133333333334,120.15L150.32533333333333,125.7125L150.42733333333334,110.58250000000001L150.858,119.25999999999999L151.43599999999998,103.9075L152.00266666666664,102.1275L152.09333333333333,100.79249999999999L152.50133333333332,115.255L152.694,101.2375L152.92066666666665,121.70750000000001L153.238,107.91250000000001L153.272,98.1225L153.35133333333334,103.24000000000001L153.374,106.35499999999999L153.56666666666666,103.46249999999999L153.65733333333333,106.5775L153.75933333333333,111.4725L153.92933333333332,106.13250000000001L154.11066666666667,102.795L154.55266666666665,113.92L154.68866666666668,113.92L154.82466666666667,96.3425L154.94933333333333,119.25999999999999L155.108,113.47500000000001L155.13066666666668,107.4675L155.53866666666667,115.47749999999999L155.9466666666667,108.3575L156.25266666666664,112.80749999999999L156.42266666666666,-143.0675L156.7626666666667,113.92L157.03466666666668,106.35499999999999L157.23866666666666,104.575L157.61266666666666,-110.58250000000004L157.91866666666667,122.5975L158.066,117.7025L158.08866666666665,107.4675L158.32666666666665,114.81L158.38333333333333,100.57000000000001L158.542,115.0325L158.65533333333332,118.37L158.71200000000002,87.8875L158.79133333333334,109.47L159.00666666666666,110.58250000000001L159.14266666666666,109.69250000000001L159.53933333333333,-28.257499999999993L160.242,103.24000000000001L160.412,103.9075L160.53666666666666,109.47L160.582,119.92750000000001L160.76333333333335,105.91L161.13733333333334,106.5775L161.23933333333335,106.5775L161.738,111.91749999999999L161.96466666666666,111.25L161.99866666666668,104.575L162.17999999999998,118.5925L162.36133333333333,116.59L163.16600000000003,123.04249999999999L163.26799999999997,110.58250000000001L163.61933333333332,111.4725L163.8346666666667,107.24499999999999L163.86866666666666,-133.27750000000003L164.118,114.1425L164.85466666666667,113.03L164.94533333333334,125.7125L165.18333333333334,109.91499999999999L165.43266666666668,121.2625L165.76133333333334,108.58L166.28266666666664,113.2525L166.60000000000002,108.58L167.2686666666667,119.0375L167.45,125.045L167.80133333333333,119.0375L168.13,93.89500000000001L168.41333333333333,118.5925L168.47,121.03999999999999L168.61733333333333,112.14L168.76466666666667,110.58250000000001L168.83266666666665,118.14750000000001L169.30866666666668,116.8125L169.32000000000002,105.02000000000001L169.54666666666665,108.58L170.204,110.58250000000001L170.39666666666668,106.35499999999999L170.7026666666667,103.9075L170.714,107.69L170.80466666666666,103.0175L170.94066666666666,101.68249999999999L171.07666666666665,119.705L171.24666666666667,103.9075L171.292,96.565L171.48466666666667,115.0325L171.68866666666668,114.1425L171.89266666666666,101.46000000000001L172.06266666666667,110.80499999999999L172.176,116.3675L172.21,103.0175L172.346,106.8L172.35733333333334,101.905L172.40266666666668,110.36L172.72,104.13000000000001L173.01466666666667,124.155L173.38866666666667,115.9225L173.55866666666668,107.4675L173.96666666666664,109.2475L174.56733333333332,111.69500000000001L174.61266666666666,104.7975L174.83933333333334,98.1225L175.39466666666667,105.465L175.72333333333333,105.24249999999999L176.19933333333333,102.35000000000001L176.77733333333333,105.465L176.94733333333335,100.3475L177.03799999999998,92.7825L177.106,105.91L177.67266666666666,122.82L177.70666666666665,105.465L177.74066666666667,112.58500000000001L177.888,101.015L178.194,119.4825L178.47733333333335,106.5775L178.55666666666667,116.3675L178.806,103.685L179.19133333333332,117.7025L179.588,118.14750000000001L179.84866666666665,104.35249999999999L179.88266666666667,108.13499999999999L180.03,106.5775L180.07533333333333,105.02000000000001L180.63066666666668,110.1375L180.642,108.13499999999999L180.85733333333334,103.9075L180.89133333333334,108.13499999999999L180.99333333333334,102.57249999999999L181.00466666666668,-114.81L181.07266666666666,121.03999999999999L181.29933333333335,108.80250000000001L181.322,108.3575L182.25133333333332,126.60249999999999L182.31933333333333,114.81L183.16933333333333,113.2525L183.84933333333333,105.465L183.91733333333335,42.05249999999998L184.178,112.14L184.59733333333332,115.9225L184.60866666666666,107.02250000000001L184.67666666666668,120.15L184.77866666666668,113.69749999999999L184.97133333333332,105.24249999999999L185.10733333333334,108.3575L185.17533333333333,110.58250000000001L185.40200000000002,107.02250000000001L185.44733333333335,120.15L185.844,54.957499999999996L186.41066666666666,101.015L186.68266666666668,113.03L186.94333333333333,113.69749999999999L187.35133333333334,97.89999999999999L187.62333333333333,96.11999999999999L187.65733333333333,100.125L188.33733333333333,116.8125L188.50733333333332,110.58250000000001L188.57533333333333,108.13499999999999L188.9153333333333,-76.98500000000001L189.0173333333333,105.6875L189.06266666666667,110.36L189.13066666666668,112.58500000000001L189.79933333333335,118.37L189.93533333333332,109.02499999999999L190.17333333333335,101.46000000000001L190.18466666666666,113.47500000000001L190.23,118.815L190.27533333333332,111.25L190.32066666666668,104.13000000000001L190.51333333333335,113.2525L190.58133333333333,115.255L190.62666666666667,111.91749999999999L190.93266666666668,109.69250000000001L191.23866666666666,113.2525L191.454,115.0325L191.81666666666666,112.80749999999999L191.828,97.00999999999999L191.83933333333334,-32.485000000000014L192.11133333333333,114.1425L192.84799999999998,124.155L192.984,112.80749999999999L193.698,120.15L194.174,123.265L194.21933333333334,121.485L194.71800000000002,109.47L194.93333333333334,114.81L195.35266666666666,122.5975L195.69266666666667,112.58500000000001L195.772,113.2525L195.88533333333334,107.4675L196.08933333333334,78.5425L196.35000000000002,122.375L196.54266666666666,119.92750000000001L196.61066666666667,108.58L196.69,123.265L197.22266666666667,123.9325L197.27933333333334,98.56750000000001L197.46066666666667,91.67L197.52866666666668,95.00750000000001L197.642,119.25999999999999L197.846,116.3675L198.03866666666667,110.80499999999999L198.06133333333332,99.9025L198.424,121.93L198.65066666666667,104.13000000000001L198.77533333333332,96.3425L199.308,111.4725L199.444,116.59L199.56866666666664,105.24249999999999L200.294,98.56750000000001L200.64533333333333,116.3675L201.06466666666668,106.13250000000001L201.33666666666667,103.46249999999999L201.43866666666668,112.14L201.50666666666666,113.69749999999999L201.67666666666668,113.03L201.86933333333332,110.1375L202.02800000000002,106.13250000000001L202.06199999999998,112.58500000000001L202.27733333333333,113.03L202.49266666666668,98.345L203.77333333333334,111.4725L203.864,101.68249999999999L203.93200000000002,96.11999999999999L204.204,105.02000000000001L204.21533333333332,98.56750000000001L204.64600000000002,94.785L204.952,115.7L205.088,38.047499999999985L205.326,96.78750000000001L205.99466666666666,-83.8825L206.142,119.25999999999999L206.25533333333334,108.58L206.30066666666667,101.46000000000001L206.58399999999997,108.80250000000001L206.83333333333331,104.575L207.64933333333332,42.4975L207.89866666666666,94.34L207.944,80.7675L207.96666666666664,103.0175L207.978,12.682500000000005L208.09133333333332,57.405L208.31799999999998,88.11L208.61266666666666,19.13500000000002L208.99800000000002,49.172499999999985L209.10000000000002,86.1075L209.73466666666667,103.685L210.34666666666666,75.4275L210.64133333333334,113.47500000000001L210.698,116.8125L210.92466666666667,26.0325L211.50266666666664,103.9075L211.548,109.91499999999999L211.91066666666666,85.6625L212.46599999999998,71.4225L212.69266666666667,74.0925L213.05533333333335,94.5625L213.16866666666667,7.564999999999998L213.17999999999998,95.4525L213.46333333333334,97.89999999999999L213.56533333333334,-12.237500000000011L213.724,73.87L214.2,69.42L214.48333333333335,104.7975L215.33333333333331,11.569999999999993L216.09266666666667,-17.80000000000001L216.444,36.935L216.82933333333335,32.70749999999998L216.84066666666666,27.590000000000003L217.09,54.735L217.52066666666667,83.4375L217.57733333333334,95.675L217.634,49.39499999999998L217.74733333333336,44.94499999999999L218.0533333333333,58.739999999999995L218.06466666666668,36.48999999999998L218.144,107.91250000000001L218.30266666666665,48.95000000000002L218.42733333333334,47.837500000000006L218.63133333333334,97.455L218.654,94.34L218.91466666666665,61.855000000000004L218.926,69.6425L218.93733333333333,98.56750000000001L218.97133333333332,48.06L219.18666666666667,90.78L219.58333333333331,-19.80250000000001L219.776,90.1125L219.92333333333335,66.0825L219.93466666666666,59.852500000000006L220.048,76.7625L220.17266666666666,76.3175L220.286,21.582499999999982L220.37666666666667,80.3225L220.49,87.4425L221.04533333333333,101.905L221.136,54.735L221.18133333333336,64.525L221.49866666666668,58.072500000000005L221.65733333333333,-117.03499999999997L221.72533333333334,41.829999999999984L221.884,-74.315L221.90666666666667,50.730000000000004L221.986,103.0175L222.06533333333334,70.0875L222.07666666666665,104.575L222.122,106.13250000000001L222.40533333333332,72.3125L222.5186666666667,102.35000000000001L222.56400000000002,48.06L222.74533333333332,99.0125L222.904,72.98L223.31199999999998,-147.51750000000004L223.32333333333332,58.962500000000006L223.40266666666668,116.3675L223.52733333333333,44.2775L224.08266666666665,69.865L224.094,105.6875L224.15066666666667,69.1975L224.45666666666665,11.569999999999993L224.66066666666666,91.67L224.88733333333334,1.3349999999999795L226.14533333333333,-27.367500000000007L226.24733333333336,58.962500000000006L226.42866666666666,72.7575L226.46266666666668,96.3425L226.56466666666668,78.5425L226.882,69.6425L227.2673333333333,74.315L227.27866666666668,73.425L227.38066666666668,101.015L227.41466666666665,53.400000000000006L227.85666666666668,84.3275L228.02666666666667,96.78750000000001L228.14,103.0175L228.31,89.66749999999999L228.33266666666665,-77.875L228.42333333333335,47.837500000000006L228.60466666666667,89.89L228.83133333333333,85.44L229.10333333333332,59.185L229.35266666666666,105.24249999999999L229.67,96.78750000000001L229.806,92.7825L230.28199999999998,93.89500000000001L230.316,105.91L230.78066666666666,85.44L230.87133333333335,98.78999999999999L231.78933333333333,97.67750000000001L231.80066666666667,13.795000000000016L232.78666666666666,-78.32L232.87733333333333,93.22749999999999L233.376,101.905L233.38733333333334,118.815L233.96533333333332,111.91749999999999L234.06733333333332,-77.875L234.64533333333333,95.22999999999999L234.75866666666667,72.535L234.838,48.72750000000002L234.89466666666667,87.4425L235.16666666666669,39.16L235.586,108.3575L235.77866666666668,81.6575L236.25466666666668,40.495000000000005L236.7986666666667,110.1375L237.25199999999998,96.78750000000001L237.53533333333334,99.45750000000001L237.75066666666666,102.35000000000001L237.80733333333333,64.7475L237.864,101.46000000000001L238.06799999999998,90.78L238.12466666666666,106.35499999999999L238.18133333333336,-77.6525L238.31733333333332,109.91499999999999L238.55533333333335,105.24249999999999L239.088,89.66749999999999L239.326,94.11749999999999L239.74533333333332,97.89999999999999L239.92666666666668,73.6475L240.31199999999998,61.63249999999999L240.43666666666667,14.685000000000002L240.58399999999997,119.4825L241.00333333333333,67.8625L241.08266666666665,90.1125L241.128,71.645L241.41133333333335,90.33500000000001L241.706,83.215L242.624,81.2125L242.658,88.3325L242.71466666666666,97.2325L243.28133333333332,28.924999999999983L243.508,90.33500000000001L243.678,66.75L243.71200000000002,92.11500000000001L243.73466666666667,101.015L243.96133333333333,93.00500000000001L244.02933333333334,91.8925L244.29,98.345L244.57333333333332,123.04249999999999L244.596,74.9825L244.74333333333334,91.44749999999999L244.9813333333333,77.2075L245.1966666666667,110.58250000000001L245.26466666666667,75.8725L245.42333333333335,118.14750000000001L245.548,100.3475L245.64999999999998,106.5775L245.69533333333334,73.6475L246.17133333333334,84.105L246.25066666666666,87.665L246.296,96.11999999999999L246.35266666666666,81.435L246.364,124.82249999999999L246.81733333333332,87.22L247.03266666666664,100.3475L247.33866666666665,99.235L247.59933333333333,103.0175L247.928,104.7975L248.39266666666666,82.77L248.506,112.58500000000001L248.642,83.66L248.8346666666667,1.5575000000000045L249.016,53.177499999999995L249.10666666666668,65.6375L249.20866666666666,98.1225L249.28799999999998,99.9025L249.74133333333333,89.89L249.82066666666668,82.5475L249.88866666666667,102.795L249.94533333333334,108.13499999999999L250.01333333333335,61.41L250.0473333333333,106.8L250.90866666666668,123.71000000000001L250.92,94.34L250.94266666666667,109.02499999999999L251.022,93.00500000000001L251.158,91.22500000000001L251.41866666666667,79.21L251.4526666666667,96.565L251.804,114.1425L252.0533333333333,116.59L252.11,89.66749999999999L252.144,108.80250000000001L252.20066666666665,79.21L252.6653333333333,111.25L252.83533333333335,75.8725L253.00533333333334,102.57249999999999L253.10733333333334,77.6525L253.13,56.7375L253.34533333333334,95.675L253.572,114.36500000000001L253.606,122.1525" style="fill: none;" fill="none"></path></g></g></g></g></g></g><g transform="translate(58, 178)" clip-path="url(#clip_1)"><clipPath id="clip_1"><rect width="272" height="22"></rect></clipPath><g><g><line x1="0" y1="0" x2="0" y2="5" style="visibility: inherit;" fill="rgb(0, 0, 0)" stroke="rgb(204, 204, 204)" stroke-width="1px"></line><line x1="22.666666666666664" y1="0" x2="22.666666666666664" y2="5" style="visibility: inherit;" fill="rgb(0, 0, 0)" stroke="rgb(204, 204, 204)" stroke-width="1px"></line><line x1="45.33333333333333" y1="0" x2="45.33333333333333" y2="5" style="visibility: inherit;" fill="rgb(0, 0, 0)" stroke="rgb(204, 204, 204)" stroke-width="1px"></line><line x1="68" y1="0" x2="68" y2="5" style="visibility: inherit;" fill="rgb(0, 0, 0)" stroke="rgb(204, 204, 204)" stroke-width="1px"></line><line x1="90.66666666666666" y1="0" x2="90.66666666666666" y2="5" style="visibility: inherit;" fill="rgb(0, 0, 0)" stroke="rgb(204, 204, 204)" stroke-width="1px"></line><line x1="113.33333333333334" y1="0" x2="113.33333333333334" y2="5" style="visibility: inherit;" fill="rgb(0, 0, 0)" stroke="rgb(204, 204, 204)" stroke-width="1px"></line><line x1="136" y1="0" x2="136" y2="5" style="visibility: inherit;" fill="rgb(0, 0, 0)" stroke="rgb(204, 204, 204)" stroke-width="1px"></line><line x1="158.66666666666669" y1="0" x2="158.66666666666669" y2="5" style="visibility: inherit;" fill="rgb(0, 0, 0)" stroke="rgb(204, 204, 204)" stroke-width="1px"></line><line x1="181.33333333333331" y1="0" x2="181.33333333333331" y2="5" style="visibility: inherit;" fill="rgb(0, 0, 0)" stroke="rgb(204, 204, 204)" stroke-width="1px"></line><line x1="204" y1="0" x2="204" y2="5" style="visibility: inherit;" fill="rgb(0, 0, 0)" stroke="rgb(204, 204, 204)" stroke-width="1px"></line><line x1="226.66666666666669" y1="0" x2="226.66666666666669" y2="5" style="visibility: inherit;" fill="rgb(0, 0, 0)" stroke="rgb(204, 204, 204)" stroke-width="1px"></line><line x1="249.33333333333331" y1="0" x2="249.33333333333331" y2="5" style="visibility: inherit;" fill="rgb(0, 0, 0)" stroke="rgb(204, 204, 204)" stroke-width="1px"></line><line x1="272" y1="0" x2="272" y2="5" style="visibility: inherit;" fill="rgb(0, 0, 0)" stroke="rgb(204, 204, 204)" stroke-width="1px"></line></g><g transform="translate(0, 8)"><text x="0" y="0" dx="0em" dy="0.95em" style="text-anchor: middle; visibility: hidden; font-family: &quot;Helvetica Neue&quot;, sans-serif; font-size: 12px; font-weight: 200;" fill="rgb(50, 49, 63)" stroke="none" stroke-width="1px">-2k</text><text x="22.666666666666664" y="0" dx="0em" dy="0.95em" style="text-anchor: middle; visibility: inherit; font-family: &quot;Helvetica Neue&quot;, sans-serif; font-size: 12px; font-weight: 200;" fill="rgb(50, 49, 63)" stroke="none" stroke-width="1px">0</text><text x="45.33333333333333" y="0" dx="0em" dy="0.95em" style="text-anchor: middle; visibility: hidden; font-family: &quot;Helvetica Neue&quot;, sans-serif; font-size: 12px; font-weight: 200;" fill="rgb(50, 49, 63)" stroke="none" stroke-width="1px">2k</text><text x="68" y="0" dx="0em" dy="0.95em" style="text-anchor: middle; visibility: inherit; font-family: &quot;Helvetica Neue&quot;, sans-serif; font-size: 12px; font-weight: 200;" fill="rgb(50, 49, 63)" stroke="none" stroke-width="1px">4k</text><text x="90.66666666666666" y="0" dx="0em" dy="0.95em" style="text-anchor: middle; visibility: hidden; font-family: &quot;Helvetica Neue&quot;, sans-serif; font-size: 12px; font-weight: 200;" fill="rgb(50, 49, 63)" stroke="none" stroke-width="1px">6k</text><text x="113.33333333333334" y="0" dx="0em" dy="0.95em" style="text-anchor: middle; visibility: inherit; font-family: &quot;Helvetica Neue&quot;, sans-serif; font-size: 12px; font-weight: 200;" fill="rgb(50, 49, 63)" stroke="none" stroke-width="1px">8k</text><text x="136" y="0" dx="0em" dy="0.95em" style="text-anchor: middle; visibility: hidden; font-family: &quot;Helvetica Neue&quot;, sans-serif; font-size: 12px; font-weight: 200;" fill="rgb(50, 49, 63)" stroke="none" stroke-width="1px">10k</text><text x="158.66666666666669" y="0" dx="0em" dy="0.95em" style="text-anchor: middle; visibility: inherit; font-family: &quot;Helvetica Neue&quot;, sans-serif; font-size: 12px; font-weight: 200;" fill="rgb(50, 49, 63)" stroke="none" stroke-width="1px">12k</text><text x="181.33333333333331" y="0" dx="0em" dy="0.95em" style="text-anchor: middle; visibility: hidden; font-family: &quot;Helvetica Neue&quot;, sans-serif; font-size: 12px; font-weight: 200;" fill="rgb(50, 49, 63)" stroke="none" stroke-width="1px">14k</text><text x="204" y="0" dx="0em" dy="0.95em" style="text-anchor: middle; visibility: inherit; font-family: &quot;Helvetica Neue&quot;, sans-serif; font-size: 12px; font-weight: 200;" fill="rgb(50, 49, 63)" stroke="none" stroke-width="1px">16k</text><text x="226.66666666666669" y="0" dx="0em" dy="0.95em" style="text-anchor: middle; visibility: hidden; font-family: &quot;Helvetica Neue&quot;, sans-serif; font-size: 12px; font-weight: 200;" fill="rgb(50, 49, 63)" stroke="none" stroke-width="1px">18k</text><text x="249.33333333333331" y="0" dx="0em" dy="0.95em" style="text-anchor: middle; visibility: inherit; font-family: &quot;Helvetica Neue&quot;, sans-serif; font-size: 12px; font-weight: 200;" fill="rgb(50, 49, 63)" stroke="none" stroke-width="1px">20k</text><text x="272" y="0" dx="0em" dy="0.95em" style="text-anchor: middle; visibility: hidden; font-family: &quot;Helvetica Neue&quot;, sans-serif; font-size: 12px; font-weight: 200;" fill="rgb(50, 49, 63)" stroke="none" stroke-width="1px">22k</text></g><line x1="0" y1="0" x2="272" y2="0" fill="rgb(0, 0, 0)" stroke="rgb(204, 204, 204)" stroke-width="1px"></line></g></g></g></g></svg>